<svg width="370" height="240" viewBox="0 0 370 240" fill="none" xmlns="http://www.w3.org/2000/svg">
<rect width="370" height="240" fill="url(#paint0_linear_9_7)"/>
<path d="M127.64 132V129.376H134.36C135.64 129.376 136.643 129.003 137.368 128.256C138.093 127.488 138.456 126.571 138.456 125.504C138.456 124.779 138.296 124.128 137.976 123.552C137.656 122.955 137.187 122.485 136.568 122.144C135.971 121.803 135.267 121.632 134.456 121.632H127.64V119.008H134.008C135.075 119.008 135.917 118.731 136.536 118.176C137.176 117.6 137.496 116.779 137.496 115.712C137.496 114.645 137.165 113.835 136.504 113.28C135.843 112.704 134.968 112.416 133.88 112.416H127.64V109.792H133.944C135.395 109.792 136.6 110.059 137.56 110.592C138.541 111.104 139.277 111.787 139.768 112.64C140.28 113.493 140.536 114.432 140.536 115.456C140.536 116.651 140.205 117.696 139.544 118.592C138.904 119.488 137.955 120.192 136.696 120.704L136.952 119.744C138.381 120.256 139.491 121.035 140.28 122.08C141.091 123.104 141.496 124.32 141.496 125.728C141.496 126.901 141.208 127.957 140.632 128.896C140.056 129.835 139.224 130.592 138.136 131.168C137.069 131.723 135.757 132 134.2 132H127.64ZM125.624 132V109.792H128.632V132H125.624ZM151.514 132.32C150.127 132.32 148.868 131.979 147.738 131.296C146.607 130.592 145.711 129.643 145.049 128.448C144.41 127.253 144.09 125.909 144.09 124.416C144.09 122.923 144.41 121.579 145.049 120.384C145.711 119.189 146.596 118.24 147.706 117.536C148.836 116.832 150.106 116.48 151.514 116.48C152.666 116.48 153.69 116.725 154.586 117.216C155.503 117.685 156.239 118.347 156.794 119.2C157.348 120.032 157.658 121.003 157.722 122.112V126.688C157.658 127.776 157.348 128.747 156.794 129.6C156.26 130.453 155.535 131.125 154.618 131.616C153.722 132.085 152.687 132.32 151.514 132.32ZM151.994 129.6C153.423 129.6 154.575 129.12 155.45 128.16C156.324 127.179 156.762 125.931 156.762 124.416C156.762 123.371 156.559 122.464 156.154 121.696C155.77 120.907 155.215 120.299 154.49 119.872C153.764 119.424 152.922 119.2 151.962 119.2C151.002 119.2 150.148 119.424 149.402 119.872C148.676 120.32 148.1 120.939 147.674 121.728C147.268 122.496 147.066 123.381 147.066 124.384C147.066 125.408 147.268 126.315 147.674 127.104C148.1 127.872 148.687 128.48 149.434 128.928C150.18 129.376 151.034 129.6 151.994 129.6ZM156.57 132V127.904L157.114 124.192L156.57 120.512V116.8H159.482V132H156.57ZM170.619 132.32C169.125 132.32 167.771 131.968 166.555 131.264C165.36 130.56 164.411 129.611 163.707 128.416C163.024 127.2 162.683 125.856 162.683 124.384C162.683 122.891 163.024 121.547 163.707 120.352C164.411 119.157 165.36 118.219 166.555 117.536C167.771 116.832 169.125 116.48 170.619 116.48C171.792 116.48 172.88 116.704 173.883 117.152C174.885 117.579 175.749 118.208 176.475 119.04L174.555 120.96C174.085 120.405 173.509 119.989 172.827 119.712C172.165 119.413 171.429 119.264 170.619 119.264C169.659 119.264 168.805 119.488 168.059 119.936C167.312 120.363 166.725 120.96 166.299 121.728C165.872 122.496 165.659 123.381 165.659 124.384C165.659 125.387 165.872 126.272 166.299 127.04C166.725 127.808 167.312 128.416 168.059 128.864C168.805 129.312 169.659 129.536 170.619 129.536C171.429 129.536 172.165 129.397 172.827 129.12C173.509 128.821 174.096 128.395 174.587 127.84L176.475 129.76C175.771 130.571 174.907 131.2 173.883 131.648C172.88 132.096 171.792 132.32 170.619 132.32ZM189.059 132L181.955 124.224L188.995 116.8H192.483L184.643 124.992L184.771 123.328L192.771 132H189.059ZM179.331 132V109.152H182.211V132H179.331ZM201.433 132.32C199.919 132.32 198.553 131.979 197.337 131.296C196.121 130.592 195.161 129.643 194.457 128.448C193.753 127.253 193.401 125.899 193.401 124.384C193.401 122.891 193.743 121.547 194.425 120.352C195.129 119.157 196.068 118.219 197.241 117.536C198.436 116.832 199.769 116.48 201.241 116.48C202.649 116.48 203.887 116.8 204.953 117.44C206.041 118.08 206.884 118.965 207.481 120.096C208.1 121.227 208.409 122.507 208.409 123.936C208.409 124.149 208.399 124.384 208.377 124.64C208.356 124.875 208.313 125.152 208.249 125.472H195.417V123.072H206.713L205.657 124C205.657 122.976 205.476 122.112 205.113 121.408C204.751 120.683 204.239 120.128 203.577 119.744C202.916 119.339 202.116 119.136 201.177 119.136C200.196 119.136 199.332 119.349 198.585 119.776C197.839 120.203 197.263 120.8 196.857 121.568C196.452 122.336 196.249 123.243 196.249 124.288C196.249 125.355 196.463 126.293 196.889 127.104C197.316 127.893 197.924 128.512 198.713 128.96C199.503 129.387 200.409 129.6 201.433 129.6C202.287 129.6 203.065 129.451 203.769 129.152C204.495 128.853 205.113 128.405 205.625 127.808L207.481 129.696C206.756 130.549 205.86 131.2 204.793 131.648C203.748 132.096 202.628 132.32 201.433 132.32ZM222.302 132V123.136C222.302 121.984 221.939 121.035 221.214 120.288C220.488 119.541 219.55 119.168 218.398 119.168C217.63 119.168 216.947 119.339 216.35 119.68C215.752 120.021 215.283 120.491 214.942 121.088C214.6 121.685 214.43 122.368 214.43 123.136L213.246 122.464C213.246 121.312 213.502 120.288 214.014 119.392C214.526 118.496 215.24 117.792 216.158 117.28C217.075 116.747 218.11 116.48 219.262 116.48C220.414 116.48 221.427 116.768 222.302 117.344C223.198 117.92 223.902 118.677 224.414 119.616C224.926 120.533 225.182 121.515 225.182 122.56V132H222.302ZM211.549 132V116.8H214.43V132H211.549ZM235.513 132.32C234.105 132.32 232.846 131.979 231.737 131.296C230.627 130.592 229.742 129.643 229.081 128.448C228.441 127.253 228.121 125.909 228.121 124.416C228.121 122.923 228.441 121.579 229.081 120.384C229.742 119.189 230.627 118.24 231.737 117.536C232.846 116.832 234.105 116.48 235.513 116.48C236.643 116.48 237.667 116.725 238.585 117.216C239.502 117.685 240.238 118.347 240.793 119.2C241.369 120.032 241.689 121.003 241.753 122.112V126.688C241.689 127.776 241.379 128.747 240.825 129.6C240.27 130.453 239.534 131.125 238.617 131.616C237.699 132.085 236.665 132.32 235.513 132.32ZM235.993 129.6C236.953 129.6 237.785 129.376 238.489 128.928C239.214 128.48 239.779 127.872 240.185 127.104C240.59 126.315 240.793 125.419 240.793 124.416C240.793 123.371 240.579 122.464 240.153 121.696C239.747 120.928 239.182 120.32 238.457 119.872C237.753 119.424 236.921 119.2 235.961 119.2C235.001 119.2 234.158 119.424 233.433 119.872C232.707 120.32 232.131 120.939 231.705 121.728C231.299 122.496 231.097 123.381 231.097 124.384C231.097 125.408 231.299 126.315 231.705 127.104C232.131 127.872 232.707 128.48 233.433 128.928C234.179 129.376 235.033 129.6 235.993 129.6ZM243.513 132H240.601V127.904L241.145 124.192L240.601 120.512V109.152H243.513V132Z" fill="white"/>
<defs>
<linearGradient id="paint0_linear_9_7" x1="370" y1="120" x2="48.5625" y2="120" gradientUnits="userSpaceOnUse">
<stop stop-color="#24E0EF" stop-opacity="0.8"/>
<stop offset="1" stop-color="#FF0000" stop-opacity="0.8"/>
</linearGradient>
</defs>
</svg>
