<svg width="370" height="240" viewBox="0 0 370 240" fill="none" xmlns="http://www.w3.org/2000/svg">
<rect width="370" height="240" fill="black"/>
<path d="M45.624 132V109.792H48.632V132H45.624ZM47.672 132V129.248H59.576V132H47.672ZM62.8003 132V116.8H65.6803V132H62.8003ZM64.2403 113.76C63.7069 113.76 63.2696 113.589 62.9283 113.248C62.5869 112.885 62.4163 112.437 62.4163 111.904C62.4163 111.392 62.5869 110.965 62.9283 110.624C63.2696 110.261 63.7069 110.08 64.2403 110.08C64.7736 110.08 65.2109 110.261 65.5523 110.624C65.8936 110.965 66.0643 111.392 66.0643 111.904C66.0643 112.437 65.8936 112.885 65.5523 113.248C65.2109 113.589 64.7736 113.76 64.2403 113.76ZM77.9245 132.32C76.7725 132.32 75.7272 132.085 74.7885 131.616C73.8712 131.125 73.1352 130.453 72.5805 129.6C72.0258 128.747 71.7165 127.776 71.6525 126.688V122.112C71.7165 121.003 72.0258 120.032 72.5805 119.2C73.1565 118.347 73.9032 117.685 74.8205 117.216C75.7592 116.725 76.7938 116.48 77.9245 116.48C79.3112 116.48 80.5592 116.832 81.6685 117.536C82.7992 118.24 83.6845 119.189 84.3245 120.384C84.9645 121.579 85.2845 122.923 85.2845 124.416C85.2845 125.909 84.9645 127.253 84.3245 128.448C83.6845 129.643 82.7992 130.592 81.6685 131.296C80.5592 131.979 79.3112 132.32 77.9245 132.32ZM77.4445 129.6C78.4045 129.6 79.2472 129.376 79.9725 128.928C80.6978 128.48 81.2738 127.872 81.7005 127.104C82.1272 126.315 82.3405 125.408 82.3405 124.384C82.3405 123.381 82.1272 122.485 81.7005 121.696C81.2738 120.907 80.6978 120.299 79.9725 119.872C79.2472 119.424 78.4152 119.2 77.4765 119.2C76.5165 119.2 75.6738 119.424 74.9485 119.872C74.2232 120.299 73.6578 120.907 73.2525 121.696C72.8472 122.485 72.6445 123.392 72.6445 124.416C72.6445 125.419 72.8365 126.315 73.2205 127.104C73.6258 127.872 74.1912 128.48 74.9165 128.928C75.6632 129.376 76.5058 129.6 77.4445 129.6ZM69.9245 132V109.152H72.8045V120.512L72.2605 124.192L72.8045 127.904V132H69.9245ZM88.5495 132V116.8H91.4295V132H88.5495ZM91.4295 123.328L90.3415 122.848C90.3415 120.907 90.7895 119.36 91.6855 118.208C92.5815 117.056 93.8722 116.48 95.5575 116.48C96.3255 116.48 97.0188 116.619 97.6375 116.896C98.2562 117.152 98.8322 117.589 99.3655 118.208L97.4775 120.16C97.1575 119.819 96.8055 119.573 96.4215 119.424C96.0375 119.275 95.5895 119.2 95.0775 119.2C94.0108 119.2 93.1362 119.541 92.4535 120.224C91.7708 120.907 91.4295 121.941 91.4295 123.328ZM107.357 132.32C105.971 132.32 104.712 131.979 103.581 131.296C102.451 130.592 101.555 129.643 100.893 128.448C100.253 127.253 99.9333 125.909 99.9333 124.416C99.9333 122.923 100.253 121.579 100.893 120.384C101.555 119.189 102.44 118.24 103.549 117.536C104.68 116.832 105.949 116.48 107.357 116.48C108.509 116.48 109.533 116.725 110.429 117.216C111.347 117.685 112.083 118.347 112.637 119.2C113.192 120.032 113.501 121.003 113.565 122.112V126.688C113.501 127.776 113.192 128.747 112.637 129.6C112.104 130.453 111.379 131.125 110.461 131.616C109.565 132.085 108.531 132.32 107.357 132.32ZM107.837 129.6C109.267 129.6 110.419 129.12 111.293 128.16C112.168 127.179 112.605 125.931 112.605 124.416C112.605 123.371 112.403 122.464 111.997 121.696C111.613 120.907 111.059 120.299 110.333 119.872C109.608 119.424 108.765 119.2 107.805 119.2C106.845 119.2 105.992 119.424 105.245 119.872C104.52 120.32 103.944 120.939 103.517 121.728C103.112 122.496 102.909 123.381 102.909 124.384C102.909 125.408 103.112 126.315 103.517 127.104C103.944 127.872 104.531 128.48 105.277 128.928C106.024 129.376 106.877 129.6 107.837 129.6ZM112.413 132V127.904L112.957 124.192L112.413 120.512V116.8H115.325V132H112.413ZM119.518 132V116.8H122.398V132H119.518ZM122.398 123.328L121.31 122.848C121.31 120.907 121.758 119.36 122.654 118.208C123.55 117.056 124.841 116.48 126.526 116.48C127.294 116.48 127.988 116.619 128.606 116.896C129.225 117.152 129.801 117.589 130.334 118.208L128.446 120.16C128.126 119.819 127.774 119.573 127.39 119.424C127.006 119.275 126.558 119.2 126.046 119.2C124.98 119.2 124.105 119.541 123.422 120.224C122.74 120.907 122.398 121.941 122.398 123.328ZM137.073 132.128L130.481 116.8H133.681L138.577 128.8H137.553L142.705 116.8H145.905L138.801 132.128H137.073ZM132.721 138.368L137.201 129.184L138.801 132.128L135.921 138.368H132.721ZM155.207 132V116.8H158.087V132H155.207ZM156.647 113.76C156.113 113.76 155.676 113.589 155.335 113.248C154.993 112.885 154.823 112.437 154.823 111.904C154.823 111.392 154.993 110.965 155.335 110.624C155.676 110.261 156.113 110.08 156.647 110.08C157.18 110.08 157.617 110.261 157.959 110.624C158.3 110.965 158.471 111.392 158.471 111.904C158.471 112.437 158.3 112.885 157.959 113.248C157.617 113.589 157.18 113.76 156.647 113.76ZM173.083 132V123.136C173.083 121.984 172.72 121.035 171.995 120.288C171.269 119.541 170.331 119.168 169.179 119.168C168.411 119.168 167.728 119.339 167.131 119.68C166.533 120.021 166.064 120.491 165.723 121.088C165.381 121.685 165.211 122.368 165.211 123.136L164.027 122.464C164.027 121.312 164.283 120.288 164.795 119.392C165.307 118.496 166.021 117.792 166.939 117.28C167.856 116.747 168.891 116.48 170.043 116.48C171.195 116.48 172.208 116.768 173.083 117.344C173.979 117.92 174.683 118.677 175.195 119.616C175.707 120.533 175.963 121.515 175.963 122.56V132H173.083ZM162.331 132V116.8H165.211V132H162.331ZM189.046 132V129.376H195.766C197.046 129.376 198.049 129.003 198.774 128.256C199.5 127.488 199.862 126.571 199.862 125.504C199.862 124.779 199.702 124.128 199.382 123.552C199.062 122.955 198.593 122.485 197.974 122.144C197.377 121.803 196.673 121.632 195.862 121.632H189.046V119.008H195.414C196.481 119.008 197.324 118.731 197.942 118.176C198.582 117.6 198.902 116.779 198.902 115.712C198.902 114.645 198.572 113.835 197.91 113.28C197.249 112.704 196.374 112.416 195.286 112.416H189.046V109.792H195.35C196.801 109.792 198.006 110.059 198.966 110.592C199.948 111.104 200.684 111.787 201.174 112.64C201.686 113.493 201.942 114.432 201.942 115.456C201.942 116.651 201.612 117.696 200.95 118.592C200.31 119.488 199.361 120.192 198.102 120.704L198.358 119.744C199.788 120.256 200.897 121.035 201.686 122.08C202.497 123.104 202.902 124.32 202.902 125.728C202.902 126.901 202.614 127.957 202.038 128.896C201.462 129.835 200.63 130.592 199.542 131.168C198.476 131.723 197.164 132 195.606 132H189.046ZM187.03 132V109.792H190.038V132H187.03ZM213.4 132.32C211.906 132.32 210.562 131.968 209.368 131.264C208.173 130.56 207.224 129.611 206.52 128.416C205.816 127.2 205.464 125.845 205.464 124.352C205.464 122.88 205.816 121.557 206.52 120.384C207.224 119.189 208.173 118.24 209.368 117.536C210.562 116.832 211.906 116.48 213.4 116.48C214.872 116.48 216.205 116.832 217.4 117.536C218.616 118.219 219.576 119.157 220.28 120.352C220.984 121.547 221.336 122.88 221.336 124.352C221.336 125.845 220.984 127.2 220.28 128.416C219.576 129.611 218.616 130.56 217.4 131.264C216.205 131.968 214.872 132.32 213.4 132.32ZM213.4 129.536C214.36 129.536 215.213 129.312 215.96 128.864C216.706 128.416 217.293 127.808 217.72 127.04C218.146 126.251 218.36 125.355 218.36 124.352C218.36 123.371 218.136 122.496 217.688 121.728C217.261 120.96 216.674 120.363 215.928 119.936C215.202 119.488 214.36 119.264 213.4 119.264C212.44 119.264 211.586 119.488 210.84 119.936C210.093 120.363 209.506 120.96 209.08 121.728C208.653 122.496 208.44 123.371 208.44 124.352C208.44 125.355 208.653 126.251 209.08 127.04C209.506 127.808 210.093 128.416 210.84 128.864C211.586 129.312 212.44 129.536 213.4 129.536ZM231.525 132.32C230.031 132.32 228.687 131.968 227.493 131.264C226.298 130.56 225.349 129.611 224.645 128.416C223.941 127.2 223.589 125.845 223.589 124.352C223.589 122.88 223.941 121.557 224.645 120.384C225.349 119.189 226.298 118.24 227.493 117.536C228.687 116.832 230.031 116.48 231.525 116.48C232.997 116.48 234.33 116.832 235.525 117.536C236.741 118.219 237.701 119.157 238.405 120.352C239.109 121.547 239.461 122.88 239.461 124.352C239.461 125.845 239.109 127.2 238.405 128.416C237.701 129.611 236.741 130.56 235.525 131.264C234.33 131.968 232.997 132.32 231.525 132.32ZM231.525 129.536C232.485 129.536 233.338 129.312 234.085 128.864C234.831 128.416 235.418 127.808 235.845 127.04C236.271 126.251 236.485 125.355 236.485 124.352C236.485 123.371 236.261 122.496 235.813 121.728C235.386 120.96 234.799 120.363 234.053 119.936C233.327 119.488 232.485 119.264 231.525 119.264C230.565 119.264 229.711 119.488 228.965 119.936C228.218 120.363 227.631 120.96 227.205 121.728C226.778 122.496 226.565 123.371 226.565 124.352C226.565 125.355 226.778 126.251 227.205 127.04C227.631 127.808 228.218 128.416 228.965 128.864C229.711 129.312 230.565 129.536 231.525 129.536ZM244.573 132V110.432H247.453V132H244.573ZM240.829 119.424V116.8H251.197V119.424H240.829ZM258.538 132.32C257.684 132.32 256.874 132.213 256.106 132C255.359 131.765 254.666 131.445 254.026 131.04C253.386 130.613 252.831 130.112 252.362 129.536L254.218 127.68C254.772 128.363 255.412 128.875 256.138 129.216C256.863 129.536 257.674 129.696 258.57 129.696C259.466 129.696 260.159 129.547 260.65 129.248C261.14 128.928 261.386 128.491 261.386 127.936C261.386 127.381 261.183 126.955 260.778 126.656C260.394 126.336 259.892 126.08 259.274 125.888C258.655 125.675 257.994 125.472 257.29 125.28C256.607 125.067 255.956 124.8 255.338 124.48C254.719 124.16 254.207 123.723 253.802 123.168C253.418 122.613 253.226 121.877 253.226 120.96C253.226 120.043 253.45 119.253 253.898 118.592C254.346 117.909 254.964 117.387 255.754 117.024C256.564 116.661 257.535 116.48 258.666 116.48C259.86 116.48 260.916 116.693 261.834 117.12C262.772 117.525 263.54 118.144 264.138 118.976L262.282 120.832C261.855 120.277 261.322 119.851 260.682 119.552C260.063 119.253 259.359 119.104 258.57 119.104C257.738 119.104 257.098 119.253 256.65 119.552C256.223 119.829 256.01 120.224 256.01 120.736C256.01 121.248 256.202 121.643 256.586 121.92C256.97 122.197 257.471 122.432 258.09 122.624C258.73 122.816 259.391 123.019 260.074 123.232C260.756 123.424 261.407 123.691 262.026 124.032C262.644 124.373 263.146 124.832 263.53 125.408C263.935 125.984 264.138 126.741 264.138 127.68C264.138 129.109 263.626 130.24 262.602 131.072C261.599 131.904 260.244 132.32 258.538 132.32ZM269.698 132V110.432H272.578V132H269.698ZM265.954 119.424V116.8H276.322V119.424H265.954ZM279.143 132V116.8H282.023V132H279.143ZM282.023 123.328L280.935 122.848C280.935 120.907 281.383 119.36 282.279 118.208C283.175 117.056 284.466 116.48 286.151 116.48C286.919 116.48 287.613 116.619 288.231 116.896C288.85 117.152 289.426 117.589 289.959 118.208L288.071 120.16C287.751 119.819 287.399 119.573 287.015 119.424C286.631 119.275 286.183 119.2 285.671 119.2C284.605 119.2 283.73 119.541 283.047 120.224C282.365 120.907 282.023 121.941 282.023 123.328ZM297.951 132.32C296.564 132.32 295.306 131.979 294.175 131.296C293.044 130.592 292.148 129.643 291.487 128.448C290.847 127.253 290.527 125.909 290.527 124.416C290.527 122.923 290.847 121.579 291.487 120.384C292.148 119.189 293.034 118.24 294.143 117.536C295.274 116.832 296.543 116.48 297.951 116.48C299.103 116.48 300.127 116.725 301.023 117.216C301.94 117.685 302.676 118.347 303.231 119.2C303.786 120.032 304.095 121.003 304.159 122.112V126.688C304.095 127.776 303.786 128.747 303.231 129.6C302.698 130.453 301.972 131.125 301.055 131.616C300.159 132.085 299.124 132.32 297.951 132.32ZM298.431 129.6C299.86 129.6 301.012 129.12 301.887 128.16C302.762 127.179 303.199 125.931 303.199 124.416C303.199 123.371 302.996 122.464 302.591 121.696C302.207 120.907 301.652 120.299 300.927 119.872C300.202 119.424 299.359 119.2 298.399 119.2C297.439 119.2 296.586 119.424 295.839 119.872C295.114 120.32 294.538 120.939 294.111 121.728C293.706 122.496 293.503 123.381 293.503 124.384C293.503 125.408 293.706 126.315 294.111 127.104C294.538 127.872 295.124 128.48 295.871 128.928C296.618 129.376 297.471 129.6 298.431 129.6ZM303.007 132V127.904L303.551 124.192L303.007 120.512V116.8H305.919V132H303.007ZM318.112 132.32C316.96 132.32 315.915 132.085 314.976 131.616C314.059 131.125 313.323 130.453 312.768 129.6C312.213 128.747 311.904 127.776 311.84 126.688V122.112C311.904 121.003 312.213 120.032 312.768 119.2C313.344 118.347 314.091 117.685 315.008 117.216C315.947 116.725 316.981 116.48 318.112 116.48C319.499 116.48 320.747 116.832 321.856 117.536C322.987 118.24 323.872 119.189 324.512 120.384C325.152 121.579 325.472 122.923 325.472 124.416C325.472 125.909 325.152 127.253 324.512 128.448C323.872 129.643 322.987 130.592 321.856 131.296C320.747 131.979 319.499 132.32 318.112 132.32ZM317.632 129.6C318.592 129.6 319.435 129.376 320.16 128.928C320.885 128.48 321.461 127.872 321.888 127.104C322.315 126.315 322.528 125.408 322.528 124.384C322.528 123.381 322.315 122.485 321.888 121.696C321.461 120.907 320.885 120.299 320.16 119.872C319.435 119.424 318.603 119.2 317.664 119.2C316.704 119.2 315.861 119.424 315.136 119.872C314.411 120.299 313.845 120.907 313.44 121.696C313.035 122.485 312.832 123.392 312.832 124.416C312.832 125.419 313.024 126.315 313.408 127.104C313.813 127.872 314.379 128.48 315.104 128.928C315.851 129.376 316.693 129.6 317.632 129.6ZM310.112 138.368V116.8H312.992V120.8L312.448 124.48L312.992 128.192V138.368H310.112Z" fill="white"/>
<g clip-path="url(#clip0_15_324)">
<path fill-rule="evenodd" clip-rule="evenodd" d="M291.616 151.667C287.052 151.667 283.674 155.662 283.825 159.995C283.97 164.158 283.782 169.549 282.424 173.945C281.063 178.355 278.761 181.148 275 181.507V185.555C278.761 185.914 281.063 188.707 282.424 193.117C283.782 197.513 283.97 202.905 283.825 207.067C283.674 211.4 287.052 215.395 291.617 215.395H338.39C342.955 215.395 346.332 211.4 346.18 207.067C346.035 202.905 346.224 197.513 347.581 193.117C348.943 188.707 351.239 185.914 355 185.555V181.507C351.239 181.148 348.943 178.355 347.581 173.945C346.224 169.549 346.035 164.158 346.18 159.995C346.332 155.663 342.955 151.667 338.39 151.667H291.616ZM329.237 190.896C329.237 196.862 324.787 200.48 317.402 200.48H304.83C304.471 200.48 304.126 200.337 303.872 200.083C303.617 199.829 303.475 199.484 303.475 199.124V167.938C303.475 167.578 303.617 167.233 303.872 166.979C304.126 166.725 304.471 166.582 304.83 166.582H317.33C323.488 166.582 327.529 169.918 327.529 175.039C327.529 178.633 324.811 181.852 321.347 182.415V182.603C326.062 183.12 329.237 186.385 329.237 190.896ZM316.031 170.88H308.863V181.005H314.9C319.567 181.005 322.141 179.126 322.141 175.766C322.141 172.619 319.928 170.88 316.031 170.88ZM308.863 185.023V196.181H316.295C321.154 196.181 323.728 194.231 323.728 190.566C323.728 186.901 321.082 185.022 315.982 185.022L308.863 185.023Z" fill="#7600D6" fill-opacity="0.9"/>
</g>
<defs>
<clipPath id="clip0_15_324">
<rect width="80" height="80" fill="white" transform="translate(275 145)"/>
</clipPath>
</defs>
</svg>
