<svg width="370" height="240" viewBox="0 0 370 240" fill="none" xmlns="http://www.w3.org/2000/svg">
<rect width="370" height="240" fill="url(#paint0_linear_9_2)"/>
<path d="M122.624 132V109.792H125.632V132H122.624ZM124.672 122.24V119.488H136.256V122.24H124.672ZM124.672 112.544V109.792H136.8V112.544H124.672ZM140.237 132V116.8H143.117V132H140.237ZM143.117 123.328L142.029 122.848C142.029 120.907 142.477 119.36 143.373 118.208C144.269 117.056 145.56 116.48 147.245 116.48C148.013 116.48 148.706 116.619 149.325 116.896C149.944 117.152 150.52 117.589 151.053 118.208L149.165 120.16C148.845 119.819 148.493 119.573 148.109 119.424C147.725 119.275 147.277 119.2 146.765 119.2C145.698 119.2 144.824 119.541 144.141 120.224C143.458 120.907 143.117 121.941 143.117 123.328ZM159.525 132.32C158.031 132.32 156.687 131.968 155.493 131.264C154.298 130.56 153.349 129.611 152.645 128.416C151.941 127.2 151.589 125.845 151.589 124.352C151.589 122.88 151.941 121.557 152.645 120.384C153.349 119.189 154.298 118.24 155.493 117.536C156.687 116.832 158.031 116.48 159.525 116.48C160.997 116.48 162.33 116.832 163.525 117.536C164.741 118.219 165.701 119.157 166.405 120.352C167.109 121.547 167.461 122.88 167.461 124.352C167.461 125.845 167.109 127.2 166.405 128.416C165.701 129.611 164.741 130.56 163.525 131.264C162.33 131.968 160.997 132.32 159.525 132.32ZM159.525 129.536C160.485 129.536 161.338 129.312 162.085 128.864C162.831 128.416 163.418 127.808 163.845 127.04C164.271 126.251 164.485 125.355 164.485 124.352C164.485 123.371 164.261 122.496 163.813 121.728C163.386 120.96 162.799 120.363 162.053 119.936C161.327 119.488 160.485 119.264 159.525 119.264C158.565 119.264 157.711 119.488 156.965 119.936C156.218 120.363 155.631 120.96 155.205 121.728C154.778 122.496 154.565 123.371 154.565 124.352C154.565 125.355 154.778 126.251 155.205 127.04C155.631 127.808 156.218 128.416 156.965 128.864C157.711 129.312 158.565 129.536 159.525 129.536ZM181.458 132V123.136C181.458 121.984 181.095 121.035 180.37 120.288C179.644 119.541 178.706 119.168 177.554 119.168C176.786 119.168 176.103 119.339 175.506 119.68C174.908 120.021 174.439 120.491 174.098 121.088C173.756 121.685 173.586 122.368 173.586 123.136L172.402 122.464C172.402 121.312 172.658 120.288 173.17 119.392C173.682 118.496 174.396 117.792 175.314 117.28C176.231 116.747 177.266 116.48 178.418 116.48C179.57 116.48 180.583 116.768 181.458 117.344C182.354 117.92 183.058 118.677 183.57 119.616C184.082 120.533 184.338 121.515 184.338 122.56V132H181.458ZM170.706 132V116.8H173.586V132H170.706ZM190.386 132V110.432H193.266V132H190.386ZM186.642 119.424V116.8H197.01V119.424H186.642ZM206.402 132.32C204.887 132.32 203.522 131.979 202.306 131.296C201.09 130.592 200.13 129.643 199.426 128.448C198.722 127.253 198.37 125.899 198.37 124.384C198.37 122.891 198.711 121.547 199.394 120.352C200.098 119.157 201.037 118.219 202.21 117.536C203.405 116.832 204.738 116.48 206.21 116.48C207.618 116.48 208.855 116.8 209.922 117.44C211.01 118.08 211.853 118.965 212.45 120.096C213.069 121.227 213.378 122.507 213.378 123.936C213.378 124.149 213.367 124.384 213.346 124.64C213.325 124.875 213.282 125.152 213.218 125.472H200.386V123.072H211.682L210.626 124C210.626 122.976 210.445 122.112 210.082 121.408C209.719 120.683 209.207 120.128 208.546 119.744C207.885 119.339 207.085 119.136 206.146 119.136C205.165 119.136 204.301 119.349 203.554 119.776C202.807 120.203 202.231 120.8 201.826 121.568C201.421 122.336 201.218 123.243 201.218 124.288C201.218 125.355 201.431 126.293 201.858 127.104C202.285 127.893 202.893 128.512 203.682 128.96C204.471 129.387 205.378 129.6 206.402 129.6C207.255 129.6 208.034 129.451 208.738 129.152C209.463 128.853 210.082 128.405 210.594 127.808L212.45 129.696C211.725 130.549 210.829 131.2 209.762 131.648C208.717 132.096 207.597 132.32 206.402 132.32ZM227.27 132V123.136C227.27 121.984 226.908 121.035 226.182 120.288C225.457 119.541 224.518 119.168 223.366 119.168C222.598 119.168 221.916 119.339 221.318 119.68C220.721 120.021 220.252 120.491 219.91 121.088C219.569 121.685 219.398 122.368 219.398 123.136L218.214 122.464C218.214 121.312 218.47 120.288 218.982 119.392C219.494 118.496 220.209 117.792 221.126 117.28C222.044 116.747 223.078 116.48 224.23 116.48C225.382 116.48 226.396 116.768 227.27 117.344C228.166 117.92 228.87 118.677 229.382 119.616C229.894 120.533 230.15 121.515 230.15 122.56V132H227.27ZM216.518 132V116.8H219.398V132H216.518ZM240.482 132.32C239.074 132.32 237.815 131.979 236.706 131.296C235.596 130.592 234.711 129.643 234.049 128.448C233.41 127.253 233.09 125.909 233.09 124.416C233.09 122.923 233.41 121.579 234.049 120.384C234.711 119.189 235.596 118.24 236.706 117.536C237.815 116.832 239.074 116.48 240.482 116.48C241.612 116.48 242.636 116.725 243.554 117.216C244.471 117.685 245.207 118.347 245.762 119.2C246.338 120.032 246.658 121.003 246.722 122.112V126.688C246.658 127.776 246.348 128.747 245.794 129.6C245.239 130.453 244.503 131.125 243.586 131.616C242.668 132.085 241.634 132.32 240.482 132.32ZM240.962 129.6C241.922 129.6 242.754 129.376 243.458 128.928C244.183 128.48 244.748 127.872 245.154 127.104C245.559 126.315 245.762 125.419 245.762 124.416C245.762 123.371 245.548 122.464 245.122 121.696C244.716 120.928 244.151 120.32 243.426 119.872C242.722 119.424 241.89 119.2 240.93 119.2C239.97 119.2 239.127 119.424 238.402 119.872C237.676 120.32 237.1 120.939 236.674 121.728C236.268 122.496 236.066 123.381 236.066 124.384C236.066 125.408 236.268 126.315 236.674 127.104C237.1 127.872 237.676 128.48 238.402 128.928C239.148 129.376 240.002 129.6 240.962 129.6ZM248.482 132H245.57V127.904L246.114 124.192L245.57 120.512V109.152H248.482V132Z" fill="white"/>
<defs>
<linearGradient id="paint0_linear_9_2" x1="370" y1="120" x2="48.5625" y2="120" gradientUnits="userSpaceOnUse">
<stop stop-color="#24E0EF" stop-opacity="0.8"/>
<stop offset="1" stop-color="#FF0000" stop-opacity="0.8"/>
</linearGradient>
</defs>
</svg>
