<svg width="370" height="240" viewBox="0 0 370 240" fill="none" xmlns="http://www.w3.org/2000/svg">
<rect width="370" height="240" fill="url(#paint0_linear_9_8)"/>
<path d="M153.672 132.32C152.115 132.32 150.653 132.032 149.288 131.456C147.944 130.859 146.76 130.037 145.736 128.992C144.733 127.947 143.944 126.731 143.368 125.344C142.792 123.957 142.504 122.464 142.504 120.864C142.504 119.264 142.792 117.781 143.368 116.416C143.944 115.029 144.744 113.813 145.768 112.768C146.792 111.723 147.987 110.912 149.352 110.336C150.739 109.76 152.243 109.472 153.864 109.472C155.635 109.472 157.267 109.813 158.76 110.496C160.253 111.179 161.501 112.16 162.504 113.44L160.424 115.52C159.72 114.496 158.792 113.717 157.64 113.184C156.488 112.629 155.229 112.352 153.864 112.352C152.243 112.352 150.803 112.715 149.544 113.44C148.307 114.165 147.336 115.168 146.632 116.448C145.949 117.728 145.608 119.2 145.608 120.864C145.608 122.549 145.96 124.032 146.664 125.312C147.368 126.592 148.317 127.595 149.512 128.32C150.707 129.045 152.072 129.408 153.608 129.408C155.165 129.408 156.509 129.109 157.64 128.512C158.792 127.915 159.677 127.04 160.296 125.888C160.915 124.715 161.224 123.285 161.224 121.6L163.048 122.912H153.448V120.16H164.328V120.608C164.328 123.189 163.869 125.355 162.952 127.104C162.056 128.832 160.797 130.133 159.176 131.008C157.576 131.883 155.741 132.32 153.672 132.32ZM174.326 132.32C172.939 132.32 171.681 131.979 170.55 131.296C169.419 130.592 168.523 129.643 167.862 128.448C167.222 127.253 166.902 125.909 166.902 124.416C166.902 122.923 167.222 121.579 167.862 120.384C168.523 119.189 169.409 118.24 170.518 117.536C171.649 116.832 172.918 116.48 174.326 116.48C175.478 116.48 176.502 116.725 177.398 117.216C178.315 117.685 179.051 118.347 179.606 119.2C180.161 120.032 180.47 121.003 180.534 122.112V126.688C180.47 127.776 180.161 128.747 179.606 129.6C179.073 130.453 178.347 131.125 177.43 131.616C176.534 132.085 175.499 132.32 174.326 132.32ZM174.806 129.6C176.235 129.6 177.387 129.12 178.262 128.16C179.137 127.179 179.574 125.931 179.574 124.416C179.574 123.371 179.371 122.464 178.966 121.696C178.582 120.907 178.027 120.299 177.302 119.872C176.577 119.424 175.734 119.2 174.774 119.2C173.814 119.2 172.961 119.424 172.214 119.872C171.489 120.32 170.913 120.939 170.486 121.728C170.081 122.496 169.878 123.381 169.878 124.384C169.878 125.408 170.081 126.315 170.486 127.104C170.913 127.872 171.499 128.48 172.246 128.928C172.993 129.376 173.846 129.6 174.806 129.6ZM179.382 132V127.904L179.926 124.192L179.382 120.512V116.8H182.294V132H179.382ZM186.487 132V116.8H189.367V132H186.487ZM196.759 132V122.816C196.759 121.685 196.407 120.8 195.703 120.16C195.02 119.499 194.156 119.168 193.111 119.168C192.407 119.168 191.778 119.317 191.223 119.616C190.668 119.915 190.22 120.331 189.879 120.864C189.538 121.397 189.367 122.037 189.367 122.784L188.183 122.208C188.183 121.056 188.428 120.053 188.919 119.2C189.431 118.347 190.124 117.685 190.999 117.216C191.874 116.725 192.855 116.48 193.943 116.48C195.01 116.48 195.97 116.715 196.823 117.184C197.698 117.653 198.38 118.315 198.871 119.168C199.383 120.021 199.639 121.035 199.639 122.208V132H196.759ZM207.031 132V122.816C207.031 121.685 206.679 120.8 205.975 120.16C205.292 119.499 204.439 119.168 203.415 119.168C202.711 119.168 202.071 119.317 201.495 119.616C200.94 119.915 200.492 120.331 200.151 120.864C199.81 121.397 199.639 122.037 199.639 122.784L198.007 122.208C198.071 121.035 198.38 120.032 198.935 119.2C199.511 118.347 200.247 117.685 201.143 117.216C202.039 116.725 203.02 116.48 204.087 116.48C205.196 116.48 206.188 116.715 207.063 117.184C207.938 117.653 208.631 118.315 209.143 119.168C209.676 120.021 209.943 121.045 209.943 122.24V132H207.031ZM220.902 132.32C219.387 132.32 218.022 131.979 216.806 131.296C215.59 130.592 214.63 129.643 213.926 128.448C213.222 127.253 212.87 125.899 212.87 124.384C212.87 122.891 213.211 121.547 213.894 120.352C214.598 119.157 215.537 118.219 216.71 117.536C217.905 116.832 219.238 116.48 220.71 116.48C222.118 116.48 223.355 116.8 224.422 117.44C225.51 118.08 226.353 118.965 226.95 120.096C227.569 121.227 227.878 122.507 227.878 123.936C227.878 124.149 227.867 124.384 227.846 124.64C227.825 124.875 227.782 125.152 227.718 125.472H214.886V123.072H226.182L225.126 124C225.126 122.976 224.945 122.112 224.582 121.408C224.219 120.683 223.707 120.128 223.046 119.744C222.385 119.339 221.585 119.136 220.646 119.136C219.665 119.136 218.801 119.349 218.054 119.776C217.307 120.203 216.731 120.8 216.326 121.568C215.921 122.336 215.718 123.243 215.718 124.288C215.718 125.355 215.931 126.293 216.358 127.104C216.785 127.893 217.393 128.512 218.182 128.96C218.971 129.387 219.878 129.6 220.902 129.6C221.755 129.6 222.534 129.451 223.238 129.152C223.963 128.853 224.582 128.405 225.094 127.808L226.95 129.696C226.225 130.549 225.329 131.2 224.262 131.648C223.217 132.096 222.097 132.32 220.902 132.32Z" fill="white"/>
<defs>
<linearGradient id="paint0_linear_9_8" x1="370" y1="120" x2="48.5625" y2="120" gradientUnits="userSpaceOnUse">
<stop stop-color="#24E0EF" stop-opacity="0.8"/>
<stop offset="1" stop-color="#FF0000" stop-opacity="0.8"/>
</linearGradient>
</defs>
</svg>
