<svg width="370" height="240" viewBox="0 0 370 240" fill="none" xmlns="http://www.w3.org/2000/svg">
<rect width="370" height="240" fill="black"/>
<path d="M75.624 132V109.792H78.632V132H75.624ZM94.114 132V123.136C94.114 121.984 93.7513 121.035 93.026 120.288C92.3007 119.541 91.362 119.168 90.21 119.168C89.442 119.168 88.7593 119.339 88.162 119.68C87.5647 120.021 87.0953 120.491 86.754 121.088C86.4127 121.685 86.242 122.368 86.242 123.136L85.058 122.464C85.058 121.312 85.314 120.288 85.826 119.392C86.338 118.496 87.0527 117.792 87.97 117.28C88.8873 116.747 89.922 116.48 91.074 116.48C92.226 116.48 93.2393 116.768 94.114 117.344C95.01 117.92 95.714 118.677 96.226 119.616C96.738 120.533 96.994 121.515 96.994 122.56V132H94.114ZM83.362 132V116.8H86.242V132H83.362ZM103.042 132V110.432H105.922V132H103.042ZM99.2978 119.424V116.8H109.666V119.424H99.2978ZM119.058 132.32C117.544 132.32 116.178 131.979 114.962 131.296C113.746 130.592 112.786 129.643 112.082 128.448C111.378 127.253 111.026 125.899 111.026 124.384C111.026 122.891 111.368 121.547 112.05 120.352C112.754 119.157 113.693 118.219 114.866 117.536C116.061 116.832 117.394 116.48 118.866 116.48C120.274 116.48 121.512 116.8 122.578 117.44C123.666 118.08 124.509 118.965 125.106 120.096C125.725 121.227 126.034 122.507 126.034 123.936C126.034 124.149 126.024 124.384 126.002 124.64C125.981 124.875 125.938 125.152 125.874 125.472H113.042V123.072H124.338L123.282 124C123.282 122.976 123.101 122.112 122.738 121.408C122.376 120.683 121.864 120.128 121.202 119.744C120.541 119.339 119.741 119.136 118.802 119.136C117.821 119.136 116.957 119.349 116.21 119.776C115.464 120.203 114.888 120.8 114.482 121.568C114.077 122.336 113.874 123.243 113.874 124.288C113.874 125.355 114.088 126.293 114.514 127.104C114.941 127.893 115.549 128.512 116.338 128.96C117.128 129.387 118.034 129.6 119.058 129.6C119.912 129.6 120.69 129.451 121.394 129.152C122.12 128.853 122.738 128.405 123.25 127.808L125.106 129.696C124.381 130.549 123.485 131.2 122.418 131.648C121.373 132.096 120.253 132.32 119.058 132.32ZM129.174 132V116.8H132.055V132H129.174ZM132.055 123.328L130.967 122.848C130.967 120.907 131.415 119.36 132.311 118.208C133.207 117.056 134.497 116.48 136.183 116.48C136.951 116.48 137.644 116.619 138.263 116.896C138.881 117.152 139.457 117.589 139.991 118.208L138.103 120.16C137.783 119.819 137.431 119.573 137.047 119.424C136.663 119.275 136.215 119.2 135.703 119.2C134.636 119.2 133.761 119.541 133.079 120.224C132.396 120.907 132.055 121.941 132.055 123.328ZM147.982 132.32C146.596 132.32 145.337 131.979 144.206 131.296C143.076 130.592 142.18 129.643 141.518 128.448C140.878 127.253 140.558 125.909 140.558 124.416C140.558 122.923 140.878 121.579 141.518 120.384C142.18 119.189 143.065 118.24 144.174 117.536C145.305 116.832 146.574 116.48 147.982 116.48C149.134 116.48 150.158 116.725 151.054 117.216C151.972 117.685 152.708 118.347 153.262 119.2C153.817 120.032 154.126 121.003 154.19 122.112V126.688C154.126 127.776 153.817 128.747 153.262 129.6C152.729 130.453 152.004 131.125 151.086 131.616C150.19 132.085 149.156 132.32 147.982 132.32ZM148.462 129.6C149.892 129.6 151.044 129.12 151.918 128.16C152.793 127.179 153.23 125.931 153.23 124.416C153.23 123.371 153.028 122.464 152.622 121.696C152.238 120.907 151.684 120.299 150.958 119.872C150.233 119.424 149.39 119.2 148.43 119.2C147.47 119.2 146.617 119.424 145.87 119.872C145.145 120.32 144.569 120.939 144.142 121.728C143.737 122.496 143.534 123.381 143.534 124.384C143.534 125.408 143.737 126.315 144.142 127.104C144.569 127.872 145.156 128.48 145.902 128.928C146.649 129.376 147.502 129.6 148.462 129.6ZM153.038 132V127.904L153.582 124.192L153.038 120.512V116.8H155.95V132H153.038ZM167.087 132.32C165.594 132.32 164.239 131.968 163.023 131.264C161.829 130.56 160.879 129.611 160.175 128.416C159.493 127.2 159.151 125.856 159.151 124.384C159.151 122.891 159.493 121.547 160.175 120.352C160.879 119.157 161.829 118.219 163.023 117.536C164.239 116.832 165.594 116.48 167.087 116.48C168.261 116.48 169.349 116.704 170.351 117.152C171.354 117.579 172.218 118.208 172.943 119.04L171.023 120.96C170.554 120.405 169.978 119.989 169.295 119.712C168.634 119.413 167.898 119.264 167.087 119.264C166.127 119.264 165.274 119.488 164.527 119.936C163.781 120.363 163.194 120.96 162.767 121.728C162.341 122.496 162.127 123.381 162.127 124.384C162.127 125.387 162.341 126.272 162.767 127.04C163.194 127.808 163.781 128.416 164.527 128.864C165.274 129.312 166.127 129.536 167.087 129.536C167.898 129.536 168.634 129.397 169.295 129.12C169.978 128.821 170.565 128.395 171.055 127.84L172.943 129.76C172.239 130.571 171.375 131.2 170.351 131.648C169.349 132.096 168.261 132.32 167.087 132.32ZM177.948 132V110.432H180.828V132H177.948ZM174.204 119.424V116.8H184.572V119.424H174.204ZM187.425 132V116.8H190.305V132H187.425ZM188.865 113.76C188.332 113.76 187.895 113.589 187.553 113.248C187.212 112.885 187.041 112.437 187.041 111.904C187.041 111.392 187.212 110.965 187.553 110.624C187.895 110.261 188.332 110.08 188.865 110.08C189.399 110.08 189.836 110.261 190.177 110.624C190.519 110.965 190.689 111.392 190.689 111.904C190.689 112.437 190.519 112.885 190.177 113.248C189.836 113.589 189.399 113.76 188.865 113.76ZM199.766 132L192.79 116.8H195.99L201.59 129.632H199.734L205.366 116.8H208.438L201.462 132H199.766ZM217.34 132.32C215.825 132.32 214.46 131.979 213.244 131.296C212.028 130.592 211.068 129.643 210.364 128.448C209.66 127.253 209.308 125.899 209.308 124.384C209.308 122.891 209.649 121.547 210.332 120.352C211.036 119.157 211.974 118.219 213.148 117.536C214.342 116.832 215.676 116.48 217.148 116.48C218.556 116.48 219.793 116.8 220.86 117.44C221.948 118.08 222.79 118.965 223.388 120.096C224.006 121.227 224.316 122.507 224.316 123.936C224.316 124.149 224.305 124.384 224.284 124.64C224.262 124.875 224.22 125.152 224.156 125.472H211.324V123.072H222.62L221.564 124C221.564 122.976 221.382 122.112 221.02 121.408C220.657 120.683 220.145 120.128 219.484 119.744C218.822 119.339 218.022 119.136 217.084 119.136C216.102 119.136 215.238 119.349 214.492 119.776C213.745 120.203 213.169 120.8 212.764 121.568C212.358 122.336 212.156 123.243 212.156 124.288C212.156 125.355 212.369 126.293 212.796 127.104C213.222 127.893 213.83 128.512 214.62 128.96C215.409 129.387 216.316 129.6 217.34 129.6C218.193 129.6 218.972 129.451 219.676 129.152C220.401 128.853 221.02 128.405 221.532 127.808L223.388 129.696C222.662 130.549 221.766 131.2 220.7 131.648C219.654 132.096 218.534 132.32 217.34 132.32ZM244.704 132.32C243.104 132.32 241.621 132.032 240.256 131.456C238.891 130.859 237.696 130.037 236.672 128.992C235.669 127.947 234.891 126.731 234.336 125.344C233.781 123.957 233.504 122.475 233.504 120.896C233.504 119.296 233.781 117.803 234.336 116.416C234.891 115.029 235.669 113.824 236.672 112.8C237.696 111.755 238.88 110.944 240.224 110.368C241.589 109.771 243.072 109.472 244.672 109.472C246.421 109.472 247.957 109.771 249.28 110.368C250.603 110.965 251.776 111.776 252.8 112.8L250.72 114.88C250.016 114.091 249.152 113.472 248.128 113.024C247.125 112.576 245.973 112.352 244.672 112.352C243.499 112.352 242.421 112.565 241.44 112.992C240.459 113.397 239.605 113.984 238.88 114.752C238.155 115.52 237.589 116.427 237.184 117.472C236.8 118.517 236.608 119.659 236.608 120.896C236.608 122.133 236.8 123.275 237.184 124.32C237.589 125.365 238.155 126.272 238.88 127.04C239.605 127.808 240.459 128.405 241.44 128.832C242.421 129.237 243.499 129.44 244.672 129.44C246.059 129.44 247.264 129.216 248.288 128.768C249.312 128.299 250.176 127.669 250.88 126.88L252.96 128.928C251.936 129.995 250.731 130.827 249.344 131.424C247.979 132.021 246.432 132.32 244.704 132.32ZM262.076 132.32C260.689 132.32 259.431 131.979 258.3 131.296C257.169 130.592 256.273 129.643 255.612 128.448C254.972 127.253 254.652 125.909 254.652 124.416C254.652 122.923 254.972 121.579 255.612 120.384C256.273 119.189 257.159 118.24 258.268 117.536C259.399 116.832 260.668 116.48 262.076 116.48C263.228 116.48 264.252 116.725 265.148 117.216C266.065 117.685 266.801 118.347 267.356 119.2C267.911 120.032 268.22 121.003 268.284 122.112V126.688C268.22 127.776 267.911 128.747 267.356 129.6C266.823 130.453 266.097 131.125 265.18 131.616C264.284 132.085 263.249 132.32 262.076 132.32ZM262.556 129.6C263.985 129.6 265.137 129.12 266.012 128.16C266.887 127.179 267.324 125.931 267.324 124.416C267.324 123.371 267.121 122.464 266.716 121.696C266.332 120.907 265.777 120.299 265.052 119.872C264.327 119.424 263.484 119.2 262.524 119.2C261.564 119.2 260.711 119.424 259.964 119.872C259.239 120.32 258.663 120.939 258.236 121.728C257.831 122.496 257.628 123.381 257.628 124.384C257.628 125.408 257.831 126.315 258.236 127.104C258.663 127.872 259.249 128.48 259.996 128.928C260.743 129.376 261.596 129.6 262.556 129.6ZM267.132 132V127.904L267.676 124.192L267.132 120.512V116.8H270.044V132H267.132ZM274.237 132V116.8H277.117V132H274.237ZM277.117 123.328L276.029 122.848C276.029 120.907 276.477 119.36 277.373 118.208C278.269 117.056 279.56 116.48 281.245 116.48C282.013 116.48 282.706 116.619 283.325 116.896C283.944 117.152 284.52 117.589 285.053 118.208L283.165 120.16C282.845 119.819 282.493 119.573 282.109 119.424C281.725 119.275 281.277 119.2 280.765 119.2C279.698 119.2 278.824 119.541 278.141 120.224C277.458 120.907 277.117 121.941 277.117 123.328ZM293.013 132.32C291.605 132.32 290.346 131.979 289.237 131.296C288.127 130.592 287.242 129.643 286.581 128.448C285.941 127.253 285.621 125.909 285.621 124.416C285.621 122.923 285.941 121.579 286.581 120.384C287.242 119.189 288.127 118.24 289.237 117.536C290.346 116.832 291.605 116.48 293.013 116.48C294.143 116.48 295.167 116.725 296.085 117.216C297.002 117.685 297.738 118.347 298.293 119.2C298.869 120.032 299.189 121.003 299.253 122.112V126.688C299.189 127.776 298.879 128.747 298.325 129.6C297.77 130.453 297.034 131.125 296.117 131.616C295.199 132.085 294.165 132.32 293.013 132.32ZM293.493 129.6C294.453 129.6 295.285 129.376 295.989 128.928C296.714 128.48 297.279 127.872 297.685 127.104C298.09 126.315 298.293 125.419 298.293 124.416C298.293 123.371 298.079 122.464 297.653 121.696C297.247 120.928 296.682 120.32 295.957 119.872C295.253 119.424 294.421 119.2 293.461 119.2C292.501 119.2 291.658 119.424 290.933 119.872C290.207 120.32 289.631 120.939 289.205 121.728C288.799 122.496 288.597 123.381 288.597 124.384C288.597 125.408 288.799 126.315 289.205 127.104C289.631 127.872 290.207 128.48 290.933 128.928C291.679 129.376 292.533 129.6 293.493 129.6ZM301.013 132H298.101V127.904L298.645 124.192L298.101 120.512V109.152H301.013V132Z" fill="white"/>
<path d="M21.97 22.3798C21.4092 21.7387 20.4969 21.6972 21.2154 21.3018C21.9339 20.9067 22.3651 20.655 23.0481 20.5113C23.7307 20.3677 24.4495 20.655 25.5634 20.9425C26.6772 21.2301 28.4738 20.9784 29.3003 21.2301C30.1267 21.4816 30.522 21.9847 30.7735 21.9486C31.0249 21.9128 31.7437 21.1582 32.4622 21.1582C33.1807 21.1582 33.5402 21.0503 35.0134 21.2301C36.4865 21.4099 37.9238 21.4816 37.9596 21.8411C37.9955 22.2003 37.9955 22.3801 38.5345 22.3801C39.0735 22.3801 39.5406 22.0567 39.864 22.5598C40.1874 23.063 40.6903 23.4223 40.6186 23.0269C40.5466 22.6318 40.1874 22.3084 40.4749 22.1645C40.7625 22.0208 41.5888 21.9489 41.8044 22.0208C42.02 22.0928 42.7027 22.2006 42.9183 22.1645C43.1339 22.1286 42.9903 21.7691 43.7088 21.9847C44.4273 22.2003 44.5351 22.7393 44.679 22.7752C44.8226 22.811 45.1461 22.2227 45.1819 21.8343C45.2177 21.4457 45.5412 21.4457 44.8946 20.9428C44.2478 20.4396 44.832 19.8289 45.2944 20.0445C45.7568 20.2601 45.4695 20.5477 45.9365 21.0148C46.4036 21.4818 46.4755 21.8772 46.7989 21.7333C47.1223 21.5896 46.9426 20.9787 47.3738 21.4457C47.805 21.9128 47.9128 21.6774 48.3079 21.5974C48.7033 21.5174 48.3799 21.266 48.8469 21.5174C49.314 21.7689 50.1045 22.0564 49.5296 22.5235C48.9547 22.9905 48.0923 22.9188 47.4816 23.2781C46.8706 23.6374 47.0504 23.5296 46.8706 23.9608C46.6909 24.392 46.7628 24.4278 46.0443 24.6076C45.3256 24.7873 45.1102 24.6434 45.1461 25.2544C45.1819 25.8654 45.1102 25.9371 44.8585 26.2605C44.607 26.5839 44.7507 26.8714 45.0383 27.0151C45.3258 27.1587 45.649 26.9073 45.649 27.3385C45.649 27.7697 46.188 28.0931 46.9065 28.0931C47.625 28.0931 47.9484 28.2729 48.3796 28.8116C48.8108 29.3506 48.1999 29.3865 48.9186 30.0692C49.6371 30.7518 50.3201 31.0752 50.4279 30.4645C50.5357 29.8538 50.4279 29.7099 50.5357 28.9914C50.6435 28.2729 51.3261 28.2009 50.9669 27.5541C50.6076 26.9073 50.0686 26.62 50.5715 26.2605C51.0747 25.9012 50.4637 25.5692 51.3261 25.3939C52.1886 25.2185 52.7634 25.0746 53.1227 25.7215C53.4819 26.3683 53.0868 26.7995 53.4461 27.0868C53.8053 27.3743 54.9192 26.9431 55.1348 26.6917C55.3504 26.4402 55.9611 26.4761 56.1767 27.4102C56.3923 28.3443 56.536 28.596 56.8594 28.7038C57.1828 28.8116 57.1828 29.0272 57.5782 29.3865C57.9733 29.7457 58.7279 30.3206 57.5782 30.4284C56.4285 30.5362 55.4941 30.3926 55.0629 30.7877C54.6317 31.1828 54.5958 30.8955 54.8831 31.4345C55.1707 31.9735 54.9551 31.6142 55.1707 32.2969C55.3863 32.9796 56.4643 32.9796 55.6736 33.4466C54.8828 33.9137 55.0268 34.0215 54.5597 33.8778C54.0926 33.7342 53.9848 32.7024 53.4458 33.5417C52.9068 34.381 52.9788 34.7044 52.5117 34.9559C52.0446 35.2073 52.0085 34.7044 51.5776 35.4949C51.1464 36.2853 51.829 36.3573 50.8591 37.2556C49.8889 38.1538 49.4218 37.7226 49.3498 38.4772C49.2779 39.2319 49.7452 40.1301 49.4935 40.3099C49.242 40.4896 49.2779 40.4535 48.9906 39.9506C48.703 39.4475 48.8469 39.1602 47.8409 39.0882C46.8348 39.0163 46.9067 38.7648 46.5114 39.196C46.116 39.6272 46.655 39.7709 45.5412 39.6272C44.4273 39.4836 44.2836 38.1541 44.068 39.6992C43.8524 41.2443 43.8166 41.4238 44.1758 41.855C44.5351 42.2862 45.5053 43.3281 45.9365 42.861C46.3677 42.394 45.8287 41.8191 46.6553 41.9986C47.4816 42.1784 47.6972 41.9628 47.5536 42.4298C47.4099 42.8969 46.296 42.9689 47.1943 43.4001C48.0926 43.8313 48.8472 43.3281 48.9189 44.011C48.9908 44.6937 48.8111 44.8735 48.8469 45.2686C48.8828 45.6637 49.0625 45.9512 49.8889 45.9512C50.7152 45.9512 50.6793 45.6278 50.8949 46.059C51.1105 46.4902 51.7932 46.2746 52.0808 45.6637C52.3683 45.0527 52.5839 44.37 53.0149 45.0888C53.4461 45.8073 53.5178 45.9512 53.949 45.6637C54.3802 45.3761 54.3802 45.3761 54.3802 45.3761C54.3802 45.3761 54.8473 44.9449 55.2426 45.3041C55.638 45.6634 56.2845 45.2683 56.4285 45.7712C56.5721 46.2741 56.3565 46.3461 56.9675 46.5258C57.5784 46.7056 58.2969 46.418 58.6562 46.9209C59.0155 47.4241 58.0452 47.1007 59.0874 47.7114C60.1293 48.3224 60.4527 48.3941 60.381 48.7894C60.3091 49.1848 60.5967 49.2565 61.5308 49.4721C62.4649 49.6877 62.3212 49.5799 63.0759 50.1547C63.8305 50.7296 64.4412 50.4782 64.6929 50.7657C64.9444 51.0533 65.3756 51.125 65.0163 51.9154C64.657 52.7059 64.2978 52.5264 64.0102 53.1371C63.7227 53.7481 63.4712 53.8917 63.5432 54.9698C63.6151 56.0478 63.651 55.94 63.4354 56.479C63.2198 57.018 62.4293 57.0897 61.7825 57.4851C61.1357 57.8804 61.0998 57.557 60.6686 58.6348C60.2374 59.7128 60.4889 59.138 60.1296 60.0721C59.7703 61.0062 60.2732 60.5391 59.2313 61.0782C58.1894 61.6172 57.794 61.1501 57.6862 61.4735C57.5784 61.7969 58.2972 61.5455 57.5426 62.2281C56.788 62.9108 56.4646 63.0906 55.9975 63.3779C55.5304 63.6652 55.2429 63.9888 55.3507 64.5995C55.4585 65.2102 55.9975 65.1744 55.3865 65.7493C54.7756 66.3241 54.5241 65.7493 54.3446 66.6834C54.1649 67.6175 53.9854 67.1865 54.1649 68.1565C54.3446 69.1267 55.2787 69.1267 54.4163 69.6657C53.5539 70.2048 52.6198 70.4562 52.0808 69.1628C51.5417 67.8692 51.5417 67.3663 51.5417 66.5039C51.5417 65.6415 51.4339 66.2883 51.8652 64.8151C52.2964 63.342 51.5776 63.8449 51.9371 62.2281C52.2964 60.6111 52.2247 58.8865 52.5839 57.7007C52.9432 56.5148 53.7336 56.8383 52.9432 55.7605C52.1527 54.6825 52.0091 54.8622 51.3264 54.1434C50.6437 53.4249 51.0749 53.5686 50.6796 52.7062C50.2842 51.8437 50.0328 51.9157 49.7094 51.2689C49.3859 50.6221 49.2062 50.8377 49.5296 49.7599C49.853 48.6819 49.1345 48.718 49.853 48.3946C50.5715 48.0712 50.464 47.2807 50.3562 46.9931C50.2484 46.7056 50.8952 46.5978 49.8891 46.4541C48.883 46.3105 48.5955 46.6339 48.2362 46.0229C47.877 45.4119 48.1643 45.3044 47.4099 44.9449C46.6553 44.5856 45.829 44.5856 45.5414 44.2981C45.2539 44.0105 45.2539 44.0105 45.2539 44.0105C45.2539 44.0105 45.7929 43.7949 44.5712 43.6513C43.3495 43.5076 42.4512 43.6513 41.8403 42.7888C41.2293 41.9264 41.3732 42.4296 41.2293 41.6391C41.0857 40.8486 40.9059 40.8486 40.331 40.3455C39.7562 39.8426 39.7562 39.555 39.2172 39.3394C38.6782 39.1238 38.5703 39.1958 38.5703 39.3036C38.5703 39.4114 38.5345 39.8426 39.0374 40.2377C39.5406 40.633 39.5764 40.9923 39.5764 41.1718C39.5764 41.3516 38.8938 41.5672 38.8938 41.5672C38.8938 41.5672 38.8938 41.3516 38.6781 40.8486C38.4625 40.3455 38.3906 40.094 37.9594 39.4833C37.5282 38.8726 37.4204 38.8007 37.4204 38.8007C37.4204 38.8007 36.9172 38.0102 36.055 36.9683C35.1926 35.9263 34.9412 36.5729 34.9412 35.3873C34.9412 34.2015 35.1568 34.2015 34.9412 33.3752C34.7256 32.5489 34.2226 32.1535 34.6536 32.0099C35.0848 31.8662 35.3363 31.6506 34.5458 30.9679C33.7553 30.2853 33.4678 30.6445 33.1805 29.7104C32.8929 28.7763 33.5039 28.848 32.318 28.4168C31.1322 27.9856 30.9886 27.6263 30.4496 27.3749C29.9105 27.1234 29.5871 26.9798 29.5871 26.9798C29.5871 26.9798 29.6949 26.872 28.4013 26.7642C27.1077 26.6564 27.2516 26.0456 26.2814 26.4407C25.3111 26.8361 25.1675 26.9078 25.1675 26.9078C25.1675 26.9078 25.7065 26.261 24.7724 26.3329C23.8383 26.4049 24.0536 26.6205 24.0178 27.0517C23.9819 27.4829 24.1256 27.9858 23.4787 28.2375C22.8319 28.489 21.8978 29.1717 22.2571 28.4531C22.6163 27.7344 23.5146 27.2315 23.1912 27.0517C22.8678 26.872 22.1851 27.4468 22.1132 26.872C22.0412 26.2971 22.1851 26.0095 21.4305 25.9737C20.6759 25.9378 20.0652 25.6144 20.64 25.3627C21.2149 25.1113 21.7539 25.2191 21.9337 24.6081C22.1134 23.9971 23.4429 23.8535 21.9695 23.8896C20.4964 23.9254 19.8496 23.9254 20.0293 23.6381C20.2091 23.3506 20.1371 22.8118 21.179 22.9555C22.2215 23.0983 22.2215 22.6671 21.97 22.3798Z" fill="white"/>
<path d="M349.981 180.681V217.319C349.981 218.794 348.62 220 346.956 220H296.026C294.362 220 293.001 218.794 293.001 217.319V180.681C293.001 179.207 294.362 178 296.026 178H346.956C348.62 178 349.981 179.207 349.981 180.681Z" fill="#F7D072"/>
<path opacity="0.2" d="M338.794 186.877L347.654 179.027H344.779L337.152 185.837L335.979 186.877L335.099 187.604L329.056 192.959H315.915L314.741 191.919L309.872 187.604L307.935 185.837L300.25 179.027H297.375L305.002 185.837L306.176 186.877H294.031V188.644H308.228L311.983 192.023L312.98 192.959V195.037H294.031V196.857H312.98V203.251H294.031V205.018H312.98V207.149H313.098L309.401 210.373L308.228 211.413H294.031V213.232H306.175L298.548 219.99H301.423L309.05 213.232L315.914 207.151H329.055L343.606 219.991H346.421L338.794 213.233H349.999V211.413H336.799L331.989 207.151V205.02H350V203.253H331.989V196.859H350V195.039H331.989V192.961L336.799 188.646H349.999V186.879H338.794V186.877ZM329.995 205.331H314.975V194.726H329.995V205.331Z" fill="white"/>
<path d="M314.916 191.919L316.911 193.686H326.063L326.885 192.959L328.058 191.919H314.916ZM314.916 191.919L316.911 193.686H326.063L326.885 192.959L328.058 191.919H314.916ZM314.916 191.919L316.911 193.686H326.063L326.885 192.959L328.058 191.919H314.916ZM314.916 191.919L316.911 193.686H326.063L326.885 192.959L328.058 191.919H314.916ZM327.236 205.331L326.063 204.292H316.911L315.797 205.331H315.738L314.917 206.111H328.058L327.236 205.331ZM314.916 191.919L316.911 193.686H326.063L326.885 192.959L328.058 191.919H314.916ZM311.983 191.919V206.111H330.991V191.919H311.983ZM328.996 204.292H313.977V193.687H328.996V204.292ZM314.916 191.919L316.911 193.686H326.063L326.885 192.959L328.058 191.919H314.916ZM314.916 191.919L316.911 193.686H326.063L326.885 192.959L328.058 191.919H314.916ZM314.916 191.919L316.911 193.686H326.063L326.885 192.959L328.058 191.919H314.916ZM314.916 191.919L316.911 193.686H326.063L326.885 192.959L328.058 191.919H314.916ZM314.916 191.919L316.911 193.686H326.063L326.885 192.959L328.058 191.919H314.916ZM314.916 191.919L316.911 193.686H326.063L326.885 192.959L328.058 191.919H314.916Z" fill="#717070"/>
<path d="M308.039 185.819L310.057 187.606H293V185.819H308.039Z" fill="#717070"/>
<path d="M349.981 185.819V187.606H332.925L334.941 185.819H349.981Z" fill="#717070"/>
<path d="M313.99 194.011H293V195.798H313.99V194.011Z" fill="#717070"/>
<path d="M349.981 194.011H328.991V195.798H349.981V194.011Z" fill="#717070"/>
<path d="M313.99 202.204H293V203.992H313.99V202.204Z" fill="#717070"/>
<path d="M349.981 202.204H328.991V203.992H349.981V202.204Z" fill="#717070"/>
<path d="M310.059 210.393L308.042 212.181H293V210.393H310.059Z" fill="#717070"/>
<path d="M349.981 210.393V212.181H334.939L332.922 210.393H349.981Z" fill="#717070"/>
<path d="M316.929 204.306L299.217 220H296.366L314.078 204.306H316.929Z" fill="#717070"/>
<path d="M346.618 178L328.905 193.694H326.054L343.767 178H346.618Z" fill="#717070"/>
<path d="M316.927 193.694H314.075L296.363 178H299.215L316.927 193.694Z" fill="#717070"/>
<path d="M346.615 220H343.764L328.069 206.093L327.229 205.349L326.052 204.306H328.903L330 205.278L330.921 206.093L332.017 207.065L335.774 210.393L336.951 211.437L337.791 212.181L338.969 213.224L346.615 220Z" fill="#717070"/>
</svg>
