<svg width="370" height="240" viewBox="0 0 370 240" fill="none" xmlns="http://www.w3.org/2000/svg">
<rect width="370" height="240" fill="black"/>
<path d="M354.082 205.817C357.762 192.712 350.113 179.091 337.008 175.411C323.902 171.731 310.282 179.38 306.602 192.486C302.922 205.592 310.571 219.212 323.676 222.892C336.782 226.572 350.403 218.923 354.082 205.817Z" fill="#D43A3A" fill-opacity="0.8" stroke="black" stroke-width="4.58333"/>
<path opacity="0.4" d="M315.745 151.105C318.012 143.03 313.296 134.565 305.176 132.285C297.057 130.006 288.636 134.734 286.356 142.854C284.089 150.929 288.805 159.394 296.925 161.674C305.044 163.954 313.478 159.181 315.745 151.105Z" fill="#D43A3A" fill-opacity="0.8" stroke="black" stroke-width="4.58333"/>
<path opacity="0.4" d="M287.189 191.937C289.11 185.097 285.111 177.976 278.271 176.056C271.432 174.135 264.31 178.134 262.39 184.974C260.47 191.813 264.469 198.935 271.308 200.855C278.148 202.775 285.269 198.776 287.189 191.937Z" fill="#D43A3A" fill-opacity="0.8" stroke="black" stroke-width="4.58333"/>
<path d="M68.5001 111.38C81.6745 107.954 89.5848 94.4838 86.1589 81.3094C82.7329 68.1351 69.2627 60.2248 56.0884 63.6507C42.914 67.0766 35.0037 80.5469 38.4296 93.7212C41.8555 106.896 55.3258 114.806 68.5001 111.38Z" fill="#80EFE2" fill-opacity="0.8" stroke="black" stroke-width="4.58333"/>
<path opacity="0.4" d="M96.4382 50.6954C104.556 48.5845 109.491 40.2449 107.368 32.083C105.246 23.9211 96.9177 19.0305 88.7558 21.1529C80.6383 23.2639 75.7032 31.6035 77.8257 39.7654C79.9482 47.9273 88.3207 52.8063 96.4382 50.6954Z" fill="#80EFE2" fill-opacity="0.8" stroke="black" stroke-width="4.58333"/>
<path opacity="0.4" d="M46.7803 46.6068C53.6558 44.8189 57.7915 37.7764 56.0035 30.9009C54.2156 24.0254 47.173 19.8897 40.2975 21.6776C33.422 23.4656 29.2864 30.5081 31.0743 37.3836C32.8622 44.2591 39.9048 48.3948 46.7803 46.6068Z" fill="#80EFE2" fill-opacity="0.8" stroke="black" stroke-width="4.58333"/>
<path d="M111.64 132V129.376H118.36C119.64 129.376 120.643 129.003 121.368 128.256C122.093 127.488 122.456 126.571 122.456 125.504C122.456 124.779 122.296 124.128 121.976 123.552C121.656 122.955 121.187 122.485 120.568 122.144C119.971 121.803 119.267 121.632 118.456 121.632H111.64V119.008H118.008C119.075 119.008 119.917 118.731 120.536 118.176C121.176 117.6 121.496 116.779 121.496 115.712C121.496 114.645 121.165 113.835 120.504 113.28C119.843 112.704 118.968 112.416 117.88 112.416H111.64V109.792H117.944C119.395 109.792 120.6 110.059 121.56 110.592C122.541 111.104 123.277 111.787 123.768 112.64C124.28 113.493 124.536 114.432 124.536 115.456C124.536 116.651 124.205 117.696 123.544 118.592C122.904 119.488 121.955 120.192 120.696 120.704L120.952 119.744C122.381 120.256 123.491 121.035 124.28 122.08C125.091 123.104 125.496 124.32 125.496 125.728C125.496 126.901 125.208 127.957 124.632 128.896C124.056 129.835 123.224 130.592 122.136 131.168C121.069 131.723 119.757 132 118.2 132H111.64ZM109.624 132V109.792H112.632V132H109.624ZM135.161 132.32C133.924 132.32 132.804 132.043 131.802 131.488C130.82 130.912 130.052 130.123 129.498 129.12C128.943 128.117 128.666 126.955 128.666 125.632V116.8H131.546V125.504C131.546 126.336 131.684 127.061 131.962 127.68C132.26 128.277 132.687 128.736 133.242 129.056C133.796 129.376 134.447 129.536 135.194 129.536C136.324 129.536 137.21 129.184 137.85 128.48C138.49 127.755 138.81 126.763 138.81 125.504V116.8H141.69V125.632C141.69 126.955 141.412 128.117 140.858 129.12C140.303 130.123 139.535 130.912 138.554 131.488C137.594 132.043 136.463 132.32 135.161 132.32ZM153.55 132.32C152.398 132.32 151.352 132.085 150.414 131.616C149.496 131.125 148.76 130.453 148.206 129.6C147.651 128.747 147.342 127.776 147.278 126.688V122.112C147.342 121.003 147.651 120.032 148.206 119.2C148.782 118.347 149.528 117.685 150.446 117.216C151.384 116.725 152.419 116.48 153.55 116.48C154.936 116.48 156.184 116.832 157.294 117.536C158.424 118.24 159.31 119.189 159.95 120.384C160.59 121.579 160.91 122.923 160.91 124.416C160.91 125.909 160.59 127.253 159.95 128.448C159.31 129.643 158.424 130.592 157.294 131.296C156.184 131.979 154.936 132.32 153.55 132.32ZM153.07 129.6C154.03 129.6 154.872 129.376 155.598 128.928C156.323 128.48 156.899 127.872 157.326 127.104C157.752 126.315 157.966 125.408 157.966 124.384C157.966 123.381 157.752 122.485 157.326 121.696C156.899 120.907 156.323 120.299 155.598 119.872C154.872 119.424 154.04 119.2 153.102 119.2C152.142 119.2 151.299 119.424 150.574 119.872C149.848 120.299 149.283 120.907 148.878 121.696C148.472 122.485 148.27 123.392 148.27 124.416C148.27 125.419 148.462 126.315 148.846 127.104C149.251 127.872 149.816 128.48 150.542 128.928C151.288 129.376 152.131 129.6 153.07 129.6ZM145.549 132V109.152H148.43V120.512L147.886 124.192L148.43 127.904V132H145.549ZM164.174 132V109.152H167.055V132H164.174ZM178.308 132.32C176.794 132.32 175.428 131.979 174.212 131.296C172.996 130.592 172.036 129.643 171.332 128.448C170.628 127.253 170.276 125.899 170.276 124.384C170.276 122.891 170.618 121.547 171.3 120.352C172.004 119.157 172.943 118.219 174.116 117.536C175.311 116.832 176.644 116.48 178.116 116.48C179.524 116.48 180.762 116.8 181.828 117.44C182.916 118.08 183.759 118.965 184.356 120.096C184.975 121.227 185.284 122.507 185.284 123.936C185.284 124.149 185.274 124.384 185.252 124.64C185.231 124.875 185.188 125.152 185.124 125.472H172.292V123.072H183.588L182.532 124C182.532 122.976 182.351 122.112 181.988 121.408C181.626 120.683 181.114 120.128 180.452 119.744C179.791 119.339 178.991 119.136 178.052 119.136C177.071 119.136 176.207 119.349 175.46 119.776C174.714 120.203 174.138 120.8 173.732 121.568C173.327 122.336 173.124 123.243 173.124 124.288C173.124 125.355 173.338 126.293 173.764 127.104C174.191 127.893 174.799 128.512 175.588 128.96C176.378 129.387 177.284 129.6 178.308 129.6C179.162 129.6 179.94 129.451 180.644 129.152C181.37 128.853 181.988 128.405 182.5 127.808L184.356 129.696C183.631 130.549 182.735 131.2 181.668 131.648C180.623 132.096 179.503 132.32 178.308 132.32ZM197.257 132V114.528C197.257 113.397 197.502 112.416 197.993 111.584C198.483 110.731 199.155 110.059 200.009 109.568C200.883 109.077 201.897 108.832 203.049 108.832C203.923 108.832 204.681 108.981 205.321 109.28C205.961 109.579 206.547 110.016 207.081 110.592L205.193 112.448C204.915 112.149 204.606 111.925 204.265 111.776C203.923 111.605 203.507 111.52 203.017 111.52C202.099 111.52 201.385 111.787 200.873 112.32C200.382 112.853 200.137 113.589 200.137 114.528V132H197.257ZM193.513 119.424V116.8H204.969V119.424H193.513ZM213.931 132.32C212.438 132.32 211.094 131.968 209.899 131.264C208.704 130.56 207.755 129.611 207.051 128.416C206.347 127.2 205.995 125.845 205.995 124.352C205.995 122.88 206.347 121.557 207.051 120.384C207.755 119.189 208.704 118.24 209.899 117.536C211.094 116.832 212.438 116.48 213.931 116.48C215.403 116.48 216.736 116.832 217.931 117.536C219.147 118.219 220.107 119.157 220.811 120.352C221.515 121.547 221.867 122.88 221.867 124.352C221.867 125.845 221.515 127.2 220.811 128.416C220.107 129.611 219.147 130.56 217.931 131.264C216.736 131.968 215.403 132.32 213.931 132.32ZM213.931 129.536C214.891 129.536 215.744 129.312 216.491 128.864C217.238 128.416 217.824 127.808 218.251 127.04C218.678 126.251 218.891 125.355 218.891 124.352C218.891 123.371 218.667 122.496 218.219 121.728C217.792 120.96 217.206 120.363 216.459 119.936C215.734 119.488 214.891 119.264 213.931 119.264C212.971 119.264 212.118 119.488 211.371 119.936C210.624 120.363 210.038 120.96 209.611 121.728C209.184 122.496 208.971 123.371 208.971 124.352C208.971 125.355 209.184 126.251 209.611 127.04C210.038 127.808 210.624 128.416 211.371 128.864C212.118 129.312 212.971 129.536 213.931 129.536ZM225.112 132V116.8H227.992V132H225.112ZM227.992 123.328L226.904 122.848C226.904 120.907 227.352 119.36 228.248 118.208C229.144 117.056 230.435 116.48 232.12 116.48C232.888 116.48 233.581 116.619 234.2 116.896C234.819 117.152 235.395 117.589 235.928 118.208L234.04 120.16C233.72 119.819 233.368 119.573 232.984 119.424C232.6 119.275 232.152 119.2 231.64 119.2C230.573 119.2 229.699 119.541 229.016 120.224C228.333 120.907 227.992 121.941 227.992 123.328ZM238.018 132V116.8H240.898V132H238.018ZM248.29 132V122.816C248.29 121.685 247.938 120.8 247.234 120.16C246.552 119.499 245.688 119.168 244.642 119.168C243.938 119.168 243.309 119.317 242.754 119.616C242.2 119.915 241.752 120.331 241.41 120.864C241.069 121.397 240.898 122.037 240.898 122.784L239.714 122.208C239.714 121.056 239.96 120.053 240.45 119.2C240.962 118.347 241.656 117.685 242.53 117.216C243.405 116.725 244.386 116.48 245.474 116.48C246.541 116.48 247.501 116.715 248.354 117.184C249.229 117.653 249.912 118.315 250.402 119.168C250.914 120.021 251.17 121.035 251.17 122.208V132H248.29ZM258.562 132V122.816C258.562 121.685 258.21 120.8 257.506 120.16C256.824 119.499 255.97 119.168 254.946 119.168C254.242 119.168 253.602 119.317 253.026 119.616C252.472 119.915 252.024 120.331 251.682 120.864C251.341 121.397 251.17 122.037 251.17 122.784L249.538 122.208C249.602 121.035 249.912 120.032 250.466 119.2C251.042 118.347 251.778 117.685 252.674 117.216C253.57 116.725 254.552 116.48 255.618 116.48C256.728 116.48 257.72 116.715 258.594 117.184C259.469 117.653 260.162 118.315 260.674 119.168C261.208 120.021 261.474 121.045 261.474 122.24V132H258.562Z" fill="white"/>
</svg>
