<svg width="370" height="240" viewBox="0 0 370 240" fill="none" xmlns="http://www.w3.org/2000/svg">
<rect width="370" height="240" fill="black"/>
<path d="M103.624 132V109.792H105.736L115.144 125.248H113.704L123.112 109.792H125.224V132H122.216V115.072L122.92 115.264L115.496 127.456H113.384L105.96 115.264L106.632 115.072V132H103.624ZM136.42 132.32C135.033 132.32 133.774 131.979 132.644 131.296C131.513 130.592 130.617 129.643 129.956 128.448C129.316 127.253 128.996 125.909 128.996 124.416C128.996 122.923 129.316 121.579 129.956 120.384C130.617 119.189 131.502 118.24 132.612 117.536C133.742 116.832 135.012 116.48 136.42 116.48C137.572 116.48 138.596 116.725 139.492 117.216C140.409 117.685 141.145 118.347 141.7 119.2C142.254 120.032 142.564 121.003 142.628 122.112V126.688C142.564 127.776 142.254 128.747 141.7 129.6C141.166 130.453 140.441 131.125 139.524 131.616C138.628 132.085 137.593 132.32 136.42 132.32ZM136.9 129.6C138.329 129.6 139.481 129.12 140.356 128.16C141.23 127.179 141.668 125.931 141.668 124.416C141.668 123.371 141.465 122.464 141.06 121.696C140.676 120.907 140.121 120.299 139.396 119.872C138.67 119.424 137.828 119.2 136.868 119.2C135.908 119.2 135.054 119.424 134.308 119.872C133.582 120.32 133.006 120.939 132.58 121.728C132.174 122.496 131.972 123.381 131.972 124.384C131.972 125.408 132.174 126.315 132.58 127.104C133.006 127.872 133.593 128.48 134.34 128.928C135.086 129.376 135.94 129.6 136.9 129.6ZM141.476 132V127.904L142.02 124.192L141.476 120.512V116.8H144.388V132H141.476ZM159.333 132V123.136C159.333 121.984 158.97 121.035 158.245 120.288C157.519 119.541 156.581 119.168 155.429 119.168C154.661 119.168 153.978 119.339 153.381 119.68C152.783 120.021 152.314 120.491 151.973 121.088C151.631 121.685 151.461 122.368 151.461 123.136L150.277 122.464C150.277 121.312 150.533 120.288 151.045 119.392C151.557 118.496 152.271 117.792 153.189 117.28C154.106 116.747 155.141 116.48 156.293 116.48C157.445 116.48 158.458 116.768 159.333 117.344C160.229 117.92 160.933 118.677 161.445 119.616C161.957 120.533 162.213 121.515 162.213 122.56V132H159.333ZM148.581 132V116.8H151.461V132H148.581ZM172.224 132.32C170.987 132.32 169.867 132.043 168.864 131.488C167.883 130.912 167.115 130.123 166.56 129.12C166.005 128.117 165.728 126.955 165.728 125.632V116.8H168.608V125.504C168.608 126.336 168.747 127.061 169.024 127.68C169.323 128.277 169.749 128.736 170.304 129.056C170.859 129.376 171.509 129.536 172.256 129.536C173.387 129.536 174.272 129.184 174.912 128.48C175.552 127.755 175.872 126.763 175.872 125.504V116.8H178.752V125.632C178.752 126.955 178.475 128.117 177.92 129.12C177.365 130.123 176.597 130.912 175.616 131.488C174.656 132.043 173.525 132.32 172.224 132.32ZM187.444 132.32C186.591 132.32 185.78 132.213 185.012 132C184.265 131.765 183.572 131.445 182.932 131.04C182.292 130.613 181.737 130.112 181.268 129.536L183.124 127.68C183.679 128.363 184.319 128.875 185.044 129.216C185.769 129.536 186.58 129.696 187.476 129.696C188.372 129.696 189.065 129.547 189.556 129.248C190.047 128.928 190.292 128.491 190.292 127.936C190.292 127.381 190.089 126.955 189.684 126.656C189.3 126.336 188.799 126.08 188.18 125.888C187.561 125.675 186.9 125.472 186.196 125.28C185.513 125.067 184.863 124.8 184.244 124.48C183.625 124.16 183.113 123.723 182.708 123.168C182.324 122.613 182.132 121.877 182.132 120.96C182.132 120.043 182.356 119.253 182.804 118.592C183.252 117.909 183.871 117.387 184.66 117.024C185.471 116.661 186.441 116.48 187.572 116.48C188.767 116.48 189.823 116.693 190.74 117.12C191.679 117.525 192.447 118.144 193.044 118.976L191.188 120.832C190.761 120.277 190.228 119.851 189.588 119.552C188.969 119.253 188.265 119.104 187.476 119.104C186.644 119.104 186.004 119.253 185.556 119.552C185.129 119.829 184.916 120.224 184.916 120.736C184.916 121.248 185.108 121.643 185.492 121.92C185.876 122.197 186.377 122.432 186.996 122.624C187.636 122.816 188.297 123.019 188.98 123.232C189.663 123.424 190.313 123.691 190.932 124.032C191.551 124.373 192.052 124.832 192.436 125.408C192.841 125.984 193.044 126.741 193.044 127.68C193.044 129.109 192.532 130.24 191.508 131.072C190.505 131.904 189.151 132.32 187.444 132.32ZM205.996 132L198.892 124.224L205.932 116.8H209.42L201.58 124.992L201.708 123.328L209.708 132H205.996ZM196.268 132V109.152H199.148V132H196.268ZM211.706 132V116.8H214.586V132H211.706ZM214.586 123.328L213.498 122.848C213.498 120.907 213.946 119.36 214.842 118.208C215.738 117.056 217.028 116.48 218.714 116.48C219.482 116.48 220.175 116.619 220.794 116.896C221.412 117.152 221.988 117.589 222.522 118.208L220.634 120.16C220.314 119.819 219.962 119.573 219.578 119.424C219.194 119.275 218.746 119.2 218.234 119.2C217.167 119.2 216.292 119.541 215.61 120.224C214.927 120.907 214.586 121.941 214.586 123.328ZM229.26 132.128L222.668 116.8H225.868L230.764 128.8H229.74L234.892 116.8H238.092L230.988 132.128H229.26ZM224.908 138.368L229.388 129.184L230.988 132.128L228.108 138.368H224.908ZM248.331 132.32C247.179 132.32 246.133 132.085 245.195 131.616C244.277 131.125 243.541 130.453 242.987 129.6C242.432 128.747 242.123 127.776 242.059 126.688V122.112C242.123 121.003 242.432 120.032 242.987 119.2C243.563 118.347 244.309 117.685 245.227 117.216C246.165 116.725 247.2 116.48 248.331 116.48C249.717 116.48 250.965 116.832 252.075 117.536C253.205 118.24 254.091 119.189 254.731 120.384C255.371 121.579 255.691 122.923 255.691 124.416C255.691 125.909 255.371 127.253 254.731 128.448C254.091 129.643 253.205 130.592 252.075 131.296C250.965 131.979 249.717 132.32 248.331 132.32ZM247.851 129.6C248.811 129.6 249.653 129.376 250.379 128.928C251.104 128.48 251.68 127.872 252.107 127.104C252.533 126.315 252.747 125.408 252.747 124.384C252.747 123.381 252.533 122.485 252.107 121.696C251.68 120.907 251.104 120.299 250.379 119.872C249.653 119.424 248.821 119.2 247.883 119.2C246.923 119.2 246.08 119.424 245.355 119.872C244.629 120.299 244.064 120.907 243.659 121.696C243.253 122.485 243.051 123.392 243.051 124.416C243.051 125.419 243.243 126.315 243.627 127.104C244.032 127.872 244.597 128.48 245.323 128.928C246.069 129.376 246.912 129.6 247.851 129.6ZM240.331 138.368V116.8H243.211V120.8L242.667 124.48L243.211 128.192V138.368H240.331ZM260.823 132V110.432H263.703V132H260.823ZM257.079 119.424V116.8H267.447V119.424H257.079Z" fill="white"/>
<path d="M283.125 215H274.375C273.878 215 273.401 214.802 273.049 214.451C272.698 214.099 272.5 213.622 272.5 213.125V154.375C272.5 153.878 272.698 153.401 273.049 153.049C273.401 152.698 273.878 152.5 274.375 152.5H283.125C283.622 152.5 284.099 152.698 284.451 153.049C284.802 153.401 285 153.878 285 154.375V213.125C285 213.622 284.802 214.099 284.451 214.451C284.099 214.802 283.622 215 283.125 215Z" fill="#70BAFF" stroke="#70BAFF" stroke-width="1.5625"/>
<path d="M307.5 172.5V164.375C307.5 163.878 307.302 163.401 306.951 163.049C306.599 162.698 306.122 162.5 305.625 162.5H289.375C288.878 162.5 288.401 162.698 288.049 163.049C287.698 163.401 287.5 163.878 287.5 164.375V172.5H307.5Z" fill="#F0F291" stroke="#F0F291" stroke-width="1.5625"/>
<path d="M287.5 205V213.125C287.5 213.622 287.698 214.099 288.049 214.451C288.401 214.802 288.878 215 289.375 215H305.625C306.122 215 306.599 214.802 306.951 214.451C307.302 214.099 307.5 213.622 307.5 213.125V205H287.5Z" fill="#F0F291" stroke="#F0F291" stroke-width="1.5625"/>
<path d="M307.5 177.5H287.5V200H307.5V177.5Z" fill="#F0F291" stroke="#F0F291" stroke-width="1.5625"/>
<path d="M323.125 215H311.875C311.378 215 310.901 214.802 310.549 214.451C310.198 214.099 310 213.622 310 213.125V146.875C310 146.378 310.198 145.901 310.549 145.549C310.901 145.198 311.378 145 311.875 145H323.125C323.622 145 324.099 145.198 324.451 145.549C324.802 145.901 325 146.378 325 146.875V213.125C325 213.622 324.802 214.099 324.451 214.451C324.099 214.802 323.622 215 323.125 215Z" fill="#E46161" stroke="#E46161" stroke-width="1.5625"/>
<path d="M327.656 155.734L332.344 213.208C332.365 213.46 332.436 213.705 332.554 213.929C332.672 214.152 332.834 214.35 333.031 214.509C333.227 214.669 333.453 214.787 333.697 214.856C333.94 214.926 334.194 214.946 334.445 214.914L345.72 213.508C346.2 213.448 346.639 213.205 346.944 212.829C347.248 212.453 347.396 211.974 347.356 211.492L342.656 154.252C342.636 154.003 342.565 153.761 342.45 153.54C342.335 153.319 342.176 153.123 341.984 152.964C341.792 152.804 341.57 152.685 341.331 152.613C341.093 152.54 340.842 152.516 340.594 152.542L329.323 153.716C328.837 153.768 328.391 154.009 328.079 154.386C327.768 154.763 327.616 155.247 327.656 155.734Z" fill="#A4F1A7" stroke="#A4F1A7" stroke-width="1.5625"/>
</svg>
