<svg width="370" height="240" viewBox="0 0 370 240" fill="none" xmlns="http://www.w3.org/2000/svg">
<rect width="370" height="240" fill="black"/>
<path d="M128.624 132V109.792H130.736L140.144 125.248H138.704L148.112 109.792H150.224V132H147.216V115.072L147.92 115.264L140.496 127.456H138.384L130.96 115.264L131.632 115.072V132H128.624ZM161.996 132.32C160.481 132.32 159.116 131.979 157.9 131.296C156.684 130.592 155.724 129.643 155.02 128.448C154.316 127.253 153.964 125.899 153.964 124.384C153.964 122.891 154.305 121.547 154.988 120.352C155.692 119.157 156.63 118.219 157.804 117.536C158.998 116.832 160.332 116.48 161.804 116.48C163.212 116.48 164.449 116.8 165.516 117.44C166.604 118.08 167.446 118.965 168.044 120.096C168.662 121.227 168.972 122.507 168.972 123.936C168.972 124.149 168.961 124.384 168.94 124.64C168.918 124.875 168.876 125.152 168.812 125.472H155.98V123.072H167.276L166.22 124C166.22 122.976 166.038 122.112 165.676 121.408C165.313 120.683 164.801 120.128 164.14 119.744C163.478 119.339 162.678 119.136 161.74 119.136C160.758 119.136 159.894 119.349 159.148 119.776C158.401 120.203 157.825 120.8 157.42 121.568C157.014 122.336 156.812 123.243 156.812 124.288C156.812 125.355 157.025 126.293 157.452 127.104C157.878 127.893 158.486 128.512 159.276 128.96C160.065 129.387 160.972 129.6 161.996 129.6C162.849 129.6 163.628 129.451 164.332 129.152C165.057 128.853 165.676 128.405 166.188 127.808L168.044 129.696C167.318 130.549 166.422 131.2 165.356 131.648C164.31 132.096 163.19 132.32 161.996 132.32ZM172.112 132V116.8H174.992V132H172.112ZM182.384 132V122.816C182.384 121.685 182.032 120.8 181.328 120.16C180.645 119.499 179.781 119.168 178.736 119.168C178.032 119.168 177.403 119.317 176.848 119.616C176.293 119.915 175.845 120.331 175.504 120.864C175.163 121.397 174.992 122.037 174.992 122.784L173.808 122.208C173.808 121.056 174.053 120.053 174.544 119.2C175.056 118.347 175.749 117.685 176.624 117.216C177.499 116.725 178.48 116.48 179.568 116.48C180.635 116.48 181.595 116.715 182.448 117.184C183.323 117.653 184.005 118.315 184.496 119.168C185.008 120.021 185.264 121.035 185.264 122.208V132H182.384ZM192.656 132V122.816C192.656 121.685 192.304 120.8 191.6 120.16C190.917 119.499 190.064 119.168 189.04 119.168C188.336 119.168 187.696 119.317 187.12 119.616C186.565 119.915 186.117 120.331 185.776 120.864C185.435 121.397 185.264 122.037 185.264 122.784L183.632 122.208C183.696 121.035 184.005 120.032 184.56 119.2C185.136 118.347 185.872 117.685 186.768 117.216C187.664 116.725 188.645 116.48 189.712 116.48C190.821 116.48 191.813 116.715 192.688 117.184C193.563 117.653 194.256 118.315 194.768 119.168C195.301 120.021 195.568 121.045 195.568 122.24V132H192.656ZM206.431 132.32C204.938 132.32 203.594 131.968 202.399 131.264C201.204 130.56 200.255 129.611 199.551 128.416C198.847 127.2 198.495 125.845 198.495 124.352C198.495 122.88 198.847 121.557 199.551 120.384C200.255 119.189 201.204 118.24 202.399 117.536C203.594 116.832 204.938 116.48 206.431 116.48C207.903 116.48 209.236 116.832 210.431 117.536C211.647 118.219 212.607 119.157 213.311 120.352C214.015 121.547 214.367 122.88 214.367 124.352C214.367 125.845 214.015 127.2 213.311 128.416C212.607 129.611 211.647 130.56 210.431 131.264C209.236 131.968 207.903 132.32 206.431 132.32ZM206.431 129.536C207.391 129.536 208.244 129.312 208.991 128.864C209.738 128.416 210.324 127.808 210.751 127.04C211.178 126.251 211.391 125.355 211.391 124.352C211.391 123.371 211.167 122.496 210.719 121.728C210.292 120.96 209.706 120.363 208.959 119.936C208.234 119.488 207.391 119.264 206.431 119.264C205.471 119.264 204.618 119.488 203.871 119.936C203.124 120.363 202.538 120.96 202.111 121.728C201.684 122.496 201.471 123.371 201.471 124.352C201.471 125.355 201.684 126.251 202.111 127.04C202.538 127.808 203.124 128.416 203.871 128.864C204.618 129.312 205.471 129.536 206.431 129.536ZM217.612 132V116.8H220.492V132H217.612ZM220.492 123.328L219.404 122.848C219.404 120.907 219.852 119.36 220.748 118.208C221.644 117.056 222.935 116.48 224.62 116.48C225.388 116.48 226.081 116.619 226.7 116.896C227.319 117.152 227.895 117.589 228.428 118.208L226.54 120.16C226.22 119.819 225.868 119.573 225.484 119.424C225.1 119.275 224.652 119.2 224.14 119.2C223.073 119.2 222.199 119.541 221.516 120.224C220.833 120.907 220.492 121.941 220.492 123.328ZM235.167 132.128L228.575 116.8H231.775L236.671 128.8H235.647L240.799 116.8H243.999L236.895 132.128H235.167ZM230.815 138.368L235.295 129.184L236.895 132.128L234.015 138.368H230.815Z" fill="white"/>
<path d="M370 190H320V240H370V190Z" fill="#0AB24B"/>
<path d="M282 0H232V50H282V0Z" fill="#9169EC"/>
<path d="M170 140H120V190H170V140Z" fill="#F00505"/>
<path d="M120 50H70V100H120V50Z" fill="#7ED0EC"/>
</svg>
