<svg width="370" height="240" viewBox="0 0 370 240" fill="none" xmlns="http://www.w3.org/2000/svg">
<rect width="370" height="240" fill="url(#paint0_linear_9_6)"/>
<path d="M131.624 132V109.792H133.736L143.144 125.248H141.704L151.112 109.792H153.224V132H150.216V115.072L150.92 115.264L143.496 127.456H141.384L133.96 115.264L134.632 115.072V132H131.624ZM164.9 132.32C163.406 132.32 162.062 131.968 160.868 131.264C159.673 130.56 158.724 129.611 158.02 128.416C157.316 127.2 156.964 125.845 156.964 124.352C156.964 122.88 157.316 121.557 158.02 120.384C158.724 119.189 159.673 118.24 160.868 117.536C162.062 116.832 163.406 116.48 164.9 116.48C166.372 116.48 167.705 116.832 168.9 117.536C170.116 118.219 171.076 119.157 171.78 120.352C172.484 121.547 172.836 122.88 172.836 124.352C172.836 125.845 172.484 127.2 171.78 128.416C171.076 129.611 170.116 130.56 168.9 131.264C167.705 131.968 166.372 132.32 164.9 132.32ZM164.9 129.536C165.86 129.536 166.713 129.312 167.46 128.864C168.206 128.416 168.793 127.808 169.22 127.04C169.646 126.251 169.86 125.355 169.86 124.352C169.86 123.371 169.636 122.496 169.188 121.728C168.761 120.96 168.174 120.363 167.428 119.936C166.702 119.488 165.86 119.264 164.9 119.264C163.94 119.264 163.086 119.488 162.34 119.936C161.593 120.363 161.006 120.96 160.58 121.728C160.153 122.496 159.94 123.371 159.94 124.352C159.94 125.355 160.153 126.251 160.58 127.04C161.006 127.808 161.593 128.416 162.34 128.864C163.086 129.312 163.94 129.536 164.9 129.536ZM183.025 132.32C181.531 132.32 180.177 131.968 178.961 131.264C177.766 130.56 176.817 129.611 176.113 128.416C175.43 127.2 175.089 125.856 175.089 124.384C175.089 122.891 175.43 121.547 176.113 120.352C176.817 119.157 177.766 118.219 178.961 117.536C180.177 116.832 181.531 116.48 183.025 116.48C184.198 116.48 185.286 116.704 186.289 117.152C187.291 117.579 188.155 118.208 188.881 119.04L186.961 120.96C186.491 120.405 185.915 119.989 185.233 119.712C184.571 119.413 183.835 119.264 183.025 119.264C182.065 119.264 181.211 119.488 180.465 119.936C179.718 120.363 179.131 120.96 178.705 121.728C178.278 122.496 178.065 123.381 178.065 124.384C178.065 125.387 178.278 126.272 178.705 127.04C179.131 127.808 179.718 128.416 180.465 128.864C181.211 129.312 182.065 129.536 183.025 129.536C183.835 129.536 184.571 129.397 185.233 129.12C185.915 128.821 186.502 128.395 186.993 127.84L188.881 129.76C188.177 130.571 187.313 131.2 186.289 131.648C185.286 132.096 184.198 132.32 183.025 132.32ZM201.465 132L194.361 124.224L201.401 116.8H204.889L197.049 124.992L197.177 123.328L205.177 132H201.465ZM191.737 132V109.152H194.617V132H191.737ZM213.224 132.32C211.987 132.32 210.867 132.043 209.864 131.488C208.883 130.912 208.115 130.123 207.56 129.12C207.005 128.117 206.728 126.955 206.728 125.632V116.8H209.608V125.504C209.608 126.336 209.747 127.061 210.024 127.68C210.323 128.277 210.749 128.736 211.304 129.056C211.859 129.376 212.509 129.536 213.256 129.536C214.387 129.536 215.272 129.184 215.912 128.48C216.552 127.755 216.872 126.763 216.872 125.504V116.8H219.752V125.632C219.752 126.955 219.475 128.117 218.92 129.12C218.365 130.123 217.597 130.912 216.616 131.488C215.656 132.043 214.525 132.32 213.224 132.32ZM231.612 132.32C230.46 132.32 229.415 132.085 228.476 131.616C227.559 131.125 226.823 130.453 226.268 129.6C225.713 128.747 225.404 127.776 225.34 126.688V122.112C225.404 121.003 225.713 120.032 226.268 119.2C226.844 118.347 227.591 117.685 228.508 117.216C229.447 116.725 230.481 116.48 231.612 116.48C232.999 116.48 234.247 116.832 235.356 117.536C236.487 118.24 237.372 119.189 238.012 120.384C238.652 121.579 238.972 122.923 238.972 124.416C238.972 125.909 238.652 127.253 238.012 128.448C237.372 129.643 236.487 130.592 235.356 131.296C234.247 131.979 232.999 132.32 231.612 132.32ZM231.132 129.6C232.092 129.6 232.935 129.376 233.66 128.928C234.385 128.48 234.961 127.872 235.388 127.104C235.815 126.315 236.028 125.408 236.028 124.384C236.028 123.381 235.815 122.485 235.388 121.696C234.961 120.907 234.385 120.299 233.66 119.872C232.935 119.424 232.103 119.2 231.164 119.2C230.204 119.2 229.361 119.424 228.636 119.872C227.911 120.299 227.345 120.907 226.94 121.696C226.535 122.485 226.332 123.392 226.332 124.416C226.332 125.419 226.524 126.315 226.908 127.104C227.313 127.872 227.879 128.48 228.604 128.928C229.351 129.376 230.193 129.6 231.132 129.6ZM223.612 138.368V116.8H226.492V120.8L225.948 124.48L226.492 128.192V138.368H223.612Z" fill="white"/>
<defs>
<linearGradient id="paint0_linear_9_6" x1="370" y1="120" x2="48.5625" y2="120" gradientUnits="userSpaceOnUse">
<stop stop-color="#24E0EF" stop-opacity="0.8"/>
<stop offset="1" stop-color="#FF0000" stop-opacity="0.8"/>
</linearGradient>
</defs>
</svg>
