<svg width="370" height="240" viewBox="0 0 370 240" fill="none" xmlns="http://www.w3.org/2000/svg">
<g clip-path="url(#clip0_19_517)">
<rect width="370" height="240" fill="black"/>
<path d="M100.624 118V95.792H103.632V118H100.624ZM102.672 118V115.248H114.576V118H102.672ZM124.056 118.32C122.563 118.32 121.219 117.968 120.024 117.264C118.829 116.56 117.88 115.611 117.176 114.416C116.472 113.2 116.12 111.845 116.12 110.352C116.12 108.88 116.472 107.557 117.176 106.384C117.88 105.189 118.829 104.24 120.024 103.536C121.219 102.832 122.563 102.48 124.056 102.48C125.528 102.48 126.861 102.832 128.056 103.536C129.272 104.219 130.232 105.157 130.936 106.352C131.64 107.547 131.992 108.88 131.992 110.352C131.992 111.845 131.64 113.2 130.936 114.416C130.232 115.611 129.272 116.56 128.056 117.264C126.861 117.968 125.528 118.32 124.056 118.32ZM124.056 115.536C125.016 115.536 125.869 115.312 126.616 114.864C127.363 114.416 127.949 113.808 128.376 113.04C128.803 112.251 129.016 111.355 129.016 110.352C129.016 109.371 128.792 108.496 128.344 107.728C127.917 106.96 127.331 106.363 126.584 105.936C125.859 105.488 125.016 105.264 124.056 105.264C123.096 105.264 122.243 105.488 121.496 105.936C120.749 106.363 120.163 106.96 119.736 107.728C119.309 108.496 119.096 109.371 119.096 110.352C119.096 111.355 119.309 112.251 119.736 113.04C120.163 113.808 120.749 114.416 121.496 114.864C122.243 115.312 123.096 115.536 124.056 115.536ZM141.541 124.688C139.984 124.688 138.597 124.4 137.381 123.824C136.186 123.248 135.226 122.437 134.501 121.392L136.357 119.504C136.976 120.293 137.712 120.891 138.565 121.296C139.418 121.723 140.432 121.936 141.605 121.936C143.162 121.936 144.389 121.52 145.285 120.688C146.202 119.877 146.661 118.779 146.661 117.392V113.616L147.173 110.192L146.661 106.8V102.8H149.541V117.392C149.541 118.843 149.2 120.112 148.517 121.2C147.856 122.288 146.917 123.141 145.701 123.76C144.506 124.379 143.12 124.688 141.541 124.688ZM141.541 117.744C140.154 117.744 138.906 117.413 137.797 116.752C136.709 116.091 135.845 115.184 135.205 114.032C134.565 112.859 134.245 111.547 134.245 110.096C134.245 108.645 134.565 107.355 135.205 106.224C135.845 105.072 136.709 104.165 137.797 103.504C138.906 102.821 140.154 102.48 141.541 102.48C142.736 102.48 143.792 102.715 144.709 103.184C145.626 103.653 146.352 104.315 146.885 105.168C147.44 106 147.738 106.981 147.781 108.112V112.144C147.717 113.253 147.408 114.235 146.853 115.088C146.32 115.92 145.594 116.571 144.677 117.04C143.76 117.509 142.714 117.744 141.541 117.744ZM142.117 115.024C143.056 115.024 143.877 114.821 144.581 114.416C145.306 114.011 145.861 113.445 146.245 112.72C146.629 111.973 146.821 111.109 146.821 110.128C146.821 109.147 146.618 108.293 146.213 107.568C145.829 106.821 145.285 106.245 144.581 105.84C143.877 105.413 143.045 105.2 142.085 105.2C141.125 105.2 140.282 105.413 139.557 105.84C138.832 106.245 138.256 106.821 137.829 107.568C137.424 108.293 137.221 109.136 137.221 110.096C137.221 111.056 137.424 111.909 137.829 112.656C138.256 113.403 138.832 113.989 139.557 114.416C140.304 114.821 141.157 115.024 142.117 115.024ZM153.8 118V102.8H156.68V118H153.8ZM155.24 99.76C154.707 99.76 154.27 99.5893 153.928 99.248C153.587 98.8853 153.416 98.4373 153.416 97.904C153.416 97.392 153.587 96.9653 153.928 96.624C154.27 96.2613 154.707 96.08 155.24 96.08C155.774 96.08 156.211 96.2613 156.552 96.624C156.894 96.9653 157.064 97.392 157.064 97.904C157.064 98.4373 156.894 98.8853 156.552 99.248C156.211 99.5893 155.774 99.76 155.24 99.76ZM171.677 118V109.136C171.677 107.984 171.314 107.035 170.589 106.288C169.863 105.541 168.925 105.168 167.773 105.168C167.005 105.168 166.322 105.339 165.725 105.68C165.127 106.021 164.658 106.491 164.317 107.088C163.975 107.685 163.805 108.368 163.805 109.136L162.621 108.464C162.621 107.312 162.877 106.288 163.389 105.392C163.901 104.496 164.615 103.792 165.533 103.28C166.45 102.747 167.485 102.48 168.637 102.48C169.789 102.48 170.802 102.768 171.677 103.344C172.573 103.92 173.277 104.677 173.789 105.616C174.301 106.533 174.557 107.515 174.557 108.56V118H171.677ZM160.924 118V102.8H163.805V118H160.924ZM185.624 118V95.792H188.632V118H185.624ZM187.672 108.24V105.488H199.256V108.24H187.672ZM187.672 98.544V95.792H199.8V98.544H187.672ZM209.556 118.32C208.063 118.32 206.719 117.968 205.524 117.264C204.329 116.56 203.38 115.611 202.676 114.416C201.972 113.2 201.62 111.845 201.62 110.352C201.62 108.88 201.972 107.557 202.676 106.384C203.38 105.189 204.329 104.24 205.524 103.536C206.719 102.832 208.063 102.48 209.556 102.48C211.028 102.48 212.361 102.832 213.556 103.536C214.772 104.219 215.732 105.157 216.436 106.352C217.14 107.547 217.492 108.88 217.492 110.352C217.492 111.845 217.14 113.2 216.436 114.416C215.732 115.611 214.772 116.56 213.556 117.264C212.361 117.968 211.028 118.32 209.556 118.32ZM209.556 115.536C210.516 115.536 211.369 115.312 212.116 114.864C212.863 114.416 213.449 113.808 213.876 113.04C214.303 112.251 214.516 111.355 214.516 110.352C214.516 109.371 214.292 108.496 213.844 107.728C213.417 106.96 212.831 106.363 212.084 105.936C211.359 105.488 210.516 105.264 209.556 105.264C208.596 105.264 207.743 105.488 206.996 105.936C206.249 106.363 205.663 106.96 205.236 107.728C204.809 108.496 204.596 109.371 204.596 110.352C204.596 111.355 204.809 112.251 205.236 113.04C205.663 113.808 206.249 114.416 206.996 114.864C207.743 115.312 208.596 115.536 209.556 115.536ZM220.737 118V102.8H223.617V118H220.737ZM223.617 109.328L222.529 108.848C222.529 106.907 222.977 105.36 223.873 104.208C224.769 103.056 226.06 102.48 227.745 102.48C228.513 102.48 229.206 102.619 229.825 102.896C230.444 103.152 231.02 103.589 231.553 104.208L229.665 106.16C229.345 105.819 228.993 105.573 228.609 105.424C228.225 105.275 227.777 105.2 227.265 105.2C226.198 105.2 225.324 105.541 224.641 106.224C223.958 106.907 223.617 107.941 223.617 109.328ZM233.643 118V102.8H236.523V118H233.643ZM243.915 118V108.816C243.915 107.685 243.563 106.8 242.859 106.16C242.177 105.499 241.313 105.168 240.267 105.168C239.563 105.168 238.934 105.317 238.379 105.616C237.825 105.915 237.377 106.331 237.035 106.864C236.694 107.397 236.523 108.037 236.523 108.784L235.339 108.208C235.339 107.056 235.585 106.053 236.075 105.2C236.587 104.347 237.281 103.685 238.155 103.216C239.03 102.725 240.011 102.48 241.099 102.48C242.166 102.48 243.126 102.715 243.979 103.184C244.854 103.653 245.537 104.315 246.027 105.168C246.539 106.021 246.795 107.035 246.795 108.208V118H243.915ZM254.187 118V108.816C254.187 107.685 253.835 106.8 253.131 106.16C252.449 105.499 251.595 105.168 250.571 105.168C249.867 105.168 249.227 105.317 248.651 105.616C248.097 105.915 247.649 106.331 247.307 106.864C246.966 107.397 246.795 108.037 246.795 108.784L245.163 108.208C245.227 107.035 245.537 106.032 246.091 105.2C246.667 104.347 247.403 103.685 248.299 103.216C249.195 102.725 250.177 102.48 251.243 102.48C252.353 102.48 253.345 102.715 254.219 103.184C255.094 103.653 255.787 104.315 256.299 105.168C256.833 106.021 257.099 107.045 257.099 108.24V118H254.187Z" fill="white"/>
<path d="M309.008 -4.31329C309.004 -23.6108 293.3 -39.3146 274.003 -39.318C254.706 -39.3146 239.003 -23.6108 239 -4.31329C239.003 14.9842 254.706 30.6865 274.003 30.6899C293.3 30.6865 309.004 14.9842 309.008 -4.31329ZM274.003 23.8317C266.489 23.83 259.422 20.9021 254.102 15.5877C248.788 10.2664 245.86 3.19894 245.858 -4.31329C245.86 -11.8289 248.788 -18.8962 254.102 -24.2143C259.425 -29.5301 266.492 -32.458 274.003 -32.4598C281.515 -32.458 288.583 -29.5301 293.904 -24.2143C299.22 -18.893 302.148 -11.8255 302.15 -4.31329C302.148 3.19744 299.22 10.2647 293.904 15.5877C288.584 20.9021 281.517 23.83 274.003 23.8317Z" fill="#6A84EC"/>
<path d="M330.837 -33.0007C320.825 -32.999 312.676 -24.8513 312.672 -14.8376C312.675 -4.82569 320.825 3.32204 330.837 3.32548C340.849 3.32204 348.997 -4.82569 349 -14.8376C348.997 -24.8513 340.849 -32.999 330.837 -33.0007ZM338.83 -6.84136C336.689 -4.70925 333.851 -3.53448 330.837 -3.53276C327.821 -3.53448 324.983 -4.70925 322.841 -6.84308C320.709 -8.98356 319.534 -11.8221 319.532 -14.8374C319.534 -17.8527 320.709 -20.691 322.842 -22.8337C324.983 -24.9658 327.821 -26.1406 330.837 -26.1423C333.851 -26.1406 336.689 -24.9656 338.831 -22.832C340.963 -20.6913 342.14 -17.851 342.142 -14.8374C342.14 -11.824 340.963 -8.98378 338.83 -6.84136Z" fill="#6A84EC"/>
<path d="M313.997 5.99561C313.42 8.23729 312.652 10.4351 311.708 12.5456C315.177 13.1488 318.317 14.7754 320.823 17.2786C324.051 20.5113 325.827 24.8043 325.829 29.3652C325.828 33.9264 324.051 38.2194 320.823 41.4519C317.59 44.6797 313.297 46.458 308.737 46.4597C304.176 46.458 299.882 44.6799 296.648 41.4519C294.282 39.0822 292.691 36.1191 292.016 32.8491C289.94 33.857 287.774 34.6912 285.559 35.3353C288.278 45.9456 297.741 53.3147 308.737 53.3179C321.941 53.3147 332.686 42.5695 332.69 29.3652C332.686 18.18 324.853 8.43107 313.997 5.99561Z" fill="#6A84EC"/>
<g clip-path="url(#clip1_19_517)">
<path d="M62.9118 12.9706C81.3387 18.7016 101 8.37348 106.737 -10.0515C112.468 -28.4782 102.139 -48.1376 83.7146 -53.8749C65.2878 -59.6061 45.6289 -49.279 39.8913 -30.8542C34.1604 -12.4273 44.487 7.23309 62.9118 12.9706ZM46.4398 -28.8162C48.6742 -35.9903 53.5699 -41.8683 60.2249 -45.3684C66.885 -48.8615 74.5033 -49.5571 81.6767 -47.3264C88.8524 -45.0915 94.7305 -40.196 98.2291 -33.5413C101.723 -26.8793 102.419 -19.261 100.189 -12.0893C97.9546 -4.91665 93.059 0.961387 86.402 4.46267C79.7414 7.95743 72.1231 8.65297 64.9497 6.42236C57.7787 4.18891 51.9006 -0.70657 48.3978 -7.36446C44.9042 -14.0229 44.2086 -21.641 46.4398 -28.8162Z" fill="#6A84EC"/>
<path d="M83.8169 42.338C86.7903 32.778 81.4322 22.5755 71.8719 19.5965C62.3112 16.6247 52.1099 21.985 49.1315 31.5437C46.1598 41.1044 51.5183 51.3054 61.077 54.2837C70.6394 57.256 80.8402 51.8974 83.8169 42.338ZM56.4641 42.1965C55.0643 39.5192 54.7861 36.4598 55.68 33.5816C56.5776 30.703 58.5428 28.3417 61.2168 26.9304C63.8942 25.5306 66.9536 25.2524 69.8332 26.1467C72.7118 27.0444 75.0728 29.0095 76.4846 31.6836C77.8844 34.361 78.1626 37.4204 77.2683 40.3C76.3711 43.1772 74.4057 45.5383 71.7319 46.9498C69.0543 48.3495 65.9928 48.6289 63.1148 47.735C60.238 46.8381 57.8757 44.8706 56.4641 42.1965Z" fill="#6A84EC"/>
<path d="M51.5861 14.6711C49.617 13.4546 47.7468 12.0675 46.0122 10.5392C44.4054 13.6722 41.9192 16.1869 38.7843 17.8365C34.7384 19.9579 30.1115 20.3783 25.756 19.0249C21.4014 17.6679 17.8302 14.6959 15.7028 10.6534C13.5815 6.6073 13.1592 1.97979 14.5128 -2.37542C15.8698 -6.73002 18.8432 -10.3008 22.8865 -12.4297C25.8524 -13.9852 29.1544 -14.624 32.477 -14.296C32.1318 -16.5784 31.9787 -18.8941 32.0219 -21.2005C21.083 -21.7573 11.2349 -14.9118 7.96428 -4.41314C4.0437 8.19569 11.1107 21.6483 23.7175 25.5752C34.3986 28.8954 46.0346 24.3135 51.5861 14.6711Z" fill="#6A84EC"/>
</g>
<g clip-path="url(#clip2_19_517)">
<path d="M91.5638 176.225C91.4308 175.894 91.233 175.595 90.978 175.34C87.6594 172.033 83.26 170.074 78.586 169.823C77.8842 169.784 77.2081 170.023 76.6847 170.493C76.1597 170.963 75.8493 171.611 75.8112 172.318C75.7906 172.706 75.8525 173.082 75.9962 173.44C76.3771 174.39 77.2844 175.039 78.3061 175.093C81.6832 175.276 84.8598 176.69 87.249 179.078C87.748 179.576 88.41 179.849 89.1166 179.849C89.8208 179.848 90.4841 179.573 90.9811 179.074C91.729 178.326 91.9572 177.206 91.5638 176.225Z" fill="#6A84EC"/>
<path d="M90.6095 221.239C108.519 214.052 117.247 193.631 110.066 175.719C102.879 157.81 82.4582 149.083 64.5466 156.264C46.6375 163.451 37.9096 183.87 45.0906 201.782C52.278 219.691 72.6978 228.42 90.6095 221.239ZM51.4559 199.229C48.6601 192.254 48.7465 184.605 51.6985 177.689C54.6588 170.776 60.1283 165.427 67.0999 162.629C74.0759 159.833 81.7251 159.919 88.6394 162.872C95.5548 165.833 100.903 171.302 103.701 178.272C106.496 185.245 106.41 192.895 103.457 199.812C100.497 206.727 95.0279 212.076 88.0563 214.874C81.0848 217.669 73.4356 217.583 66.5161 214.63C59.6033 211.671 54.2549 206.202 51.4559 199.229Z" fill="#6A84EC"/>
<path d="M125.361 230.819C121.633 221.528 111.037 216.998 101.741 220.722C92.4504 224.453 87.9222 235.049 91.6463 244.343C95.3768 253.634 105.972 258.163 115.266 254.439C124.558 250.708 129.087 240.112 125.361 230.819ZM104.058 247.976C101.282 246.783 99.1352 244.586 98.0116 241.79C96.8906 238.991 96.9242 235.919 98.1072 233.136C99.3 230.36 101.497 228.213 104.295 227.089C107.094 225.968 110.166 226.002 112.949 227.185C115.725 228.378 117.872 230.575 118.996 233.373C120.116 236.17 120.083 239.242 118.9 242.025C117.707 244.801 115.509 246.95 112.712 248.073C109.915 249.194 106.841 249.159 104.058 247.976Z" fill="#6A84EC"/>
<path d="M82.899 229.708C80.6038 230.007 78.2778 230.112 75.9677 230.022C76.6992 233.466 76.3585 236.986 74.9684 240.244C73.1697 244.443 69.8466 247.69 65.6143 249.39C61.3803 251.086 56.7345 251.036 52.5327 249.243C48.3333 247.444 45.0847 244.122 43.3852 239.89C41.6887 235.656 41.7408 231.009 43.5327 226.806C44.8511 223.727 47.0088 221.147 49.7927 219.304C48.0842 217.752 46.5037 216.053 45.0813 214.237C36.2459 220.71 32.9292 232.236 37.02 242.443C41.9388 254.697 55.9118 260.669 68.1682 255.757C78.548 251.589 84.6803 240.69 82.899 229.708Z" fill="#6A84EC"/>
</g>
<path d="M308.078 198.636C307.732 198.728 307.412 198.888 307.127 199.11C303.44 202 300.959 206.127 300.138 210.735C300.015 211.427 300.169 212.127 300.571 212.704C300.974 213.283 301.579 213.67 302.276 213.794C302.658 213.862 303.04 213.846 303.413 213.747C304.402 213.485 305.157 212.664 305.335 211.657C305.93 208.327 307.72 205.347 310.383 203.267C310.937 202.833 311.29 202.209 311.376 201.508C311.461 200.809 311.269 200.117 310.834 199.563C310.183 198.729 309.099 198.366 308.078 198.636Z" fill="#6A84EC"/>
<path d="M352.639 205.081C347.692 186.428 328.49 175.271 309.835 180.211C291.182 185.157 280.027 204.359 284.967 223.014C289.913 241.666 309.113 252.823 327.768 247.883C346.421 242.936 357.578 223.735 352.639 205.081ZM326.011 241.253C318.747 243.176 311.166 242.157 304.663 238.382C298.162 234.6 293.522 228.518 291.596 221.257C289.672 213.991 290.692 206.41 294.467 199.908C298.251 193.406 304.332 188.766 311.592 186.84C318.854 184.917 326.436 185.937 332.941 189.713C339.443 193.495 344.083 199.576 346.009 206.838C347.932 214.098 346.912 221.68 343.136 228.187C339.356 234.686 333.274 239.327 326.011 241.253Z" fill="#6A84EC"/>
<path d="M366.391 171.759C356.714 174.325 350.923 184.289 353.485 193.969C356.052 203.646 366.017 209.435 375.696 206.873C385.373 204.305 391.162 194.342 388.601 184.664C386.032 174.985 376.069 169.196 366.391 171.759ZM380.818 194.998C379.295 197.608 376.852 199.47 373.939 200.244C371.024 201.015 367.979 200.606 365.362 199.092C362.753 197.569 360.89 195.126 360.116 192.212C359.345 189.297 359.754 186.252 361.268 183.635C362.79 181.025 365.233 179.163 368.148 178.389C371.061 177.618 374.106 178.027 376.723 179.541C379.333 181.064 381.197 183.508 381.971 186.421C382.742 189.334 382.332 192.381 380.818 194.998Z" fill="#6A84EC"/>
<path d="M360.102 213.768C360.119 216.082 359.939 218.404 359.567 220.686C363.075 220.38 366.527 221.148 369.591 222.926C373.539 225.224 376.356 228.919 377.526 233.327C378.692 237.736 378.075 242.341 375.783 246.293C373.484 250.241 369.79 253.059 365.382 254.229C360.973 255.396 356.367 254.777 352.414 252.485C349.52 250.801 347.223 248.344 345.733 245.356C343.984 246.862 342.104 248.223 340.128 249.413C345.474 258.973 356.509 263.672 367.139 260.859C379.902 257.473 387.536 244.334 384.157 231.57C381.288 220.759 371.22 213.341 360.102 213.768Z" fill="#6A84EC"/>
</g>
<defs>
<clipPath id="clip0_19_517">
<rect width="370" height="240" fill="white"/>
</clipPath>
<clipPath id="clip1_19_517">
<rect width="110" height="110" fill="white" transform="translate(134.181 6.14954) rotate(107.286)"/>
</clipPath>
<clipPath id="clip2_19_517">
<rect width="110" height="110" fill="white" transform="translate(105.093 140) rotate(68.1434)"/>
</clipPath>
</defs>
</svg>
