<svg width="370" height="240" viewBox="0 0 370 240" fill="none" xmlns="http://www.w3.org/2000/svg">
<g clip-path="url(#clip0_10_17)">
<rect width="370" height="240" fill="black"/>
<path d="M148.512 132V110.432H151.52V132H148.512ZM140.96 112.544V109.792H159.04V112.544H140.96ZM164.933 132.32C163.419 132.32 162.053 131.979 160.837 131.296C159.621 130.592 158.661 129.643 157.957 128.448C157.253 127.253 156.901 125.899 156.901 124.384C156.901 122.891 157.243 121.547 157.925 120.352C158.629 119.157 159.568 118.219 160.741 117.536C161.936 116.832 163.269 116.48 164.741 116.48C166.149 116.48 167.387 116.8 168.453 117.44C169.541 118.08 170.384 118.965 170.981 120.096C171.6 121.227 171.909 122.507 171.909 123.936C171.909 124.149 171.899 124.384 171.877 124.64C171.856 124.875 171.813 125.152 171.749 125.472H158.917V123.072H170.213L169.157 124C169.157 122.976 168.976 122.112 168.613 121.408C168.251 120.683 167.739 120.128 167.077 119.744C166.416 119.339 165.616 119.136 164.677 119.136C163.696 119.136 162.832 119.349 162.085 119.776C161.339 120.203 160.763 120.8 160.357 121.568C159.952 122.336 159.749 123.243 159.749 124.288C159.749 125.355 159.963 126.293 160.389 127.104C160.816 127.893 161.424 128.512 162.213 128.96C163.003 129.387 163.909 129.6 164.933 129.6C165.787 129.6 166.565 129.451 167.269 129.152C167.995 128.853 168.613 128.405 169.125 127.808L170.981 129.696C170.256 130.549 169.36 131.2 168.293 131.648C167.248 132.096 166.128 132.32 164.933 132.32ZM185.802 132V123.136C185.802 121.984 185.439 121.035 184.714 120.288C183.988 119.541 183.05 119.168 181.898 119.168C181.13 119.168 180.447 119.339 179.85 119.68C179.252 120.021 178.783 120.491 178.442 121.088C178.1 121.685 177.93 122.368 177.93 123.136L176.746 122.464C176.746 121.312 177.002 120.288 177.514 119.392C178.026 118.496 178.74 117.792 179.658 117.28C180.575 116.747 181.61 116.48 182.762 116.48C183.914 116.48 184.927 116.768 185.802 117.344C186.698 117.92 187.402 118.677 187.914 119.616C188.426 120.533 188.682 121.515 188.682 122.56V132H185.802ZM175.049 132V116.8H177.93V132H175.049ZM203.333 132V123.136C203.333 121.984 202.97 121.035 202.245 120.288C201.519 119.541 200.581 119.168 199.429 119.168C198.661 119.168 197.978 119.339 197.381 119.68C196.783 120.021 196.314 120.491 195.973 121.088C195.631 121.685 195.461 122.368 195.461 123.136L194.277 122.464C194.277 121.312 194.533 120.288 195.045 119.392C195.557 118.496 196.271 117.792 197.189 117.28C198.106 116.747 199.141 116.48 200.293 116.48C201.445 116.48 202.458 116.768 203.333 117.344C204.229 117.92 204.933 118.677 205.445 119.616C205.957 120.533 206.213 121.515 206.213 122.56V132H203.333ZM192.581 132V116.8H195.461V132H192.581ZM210.144 132V116.8H213.024V132H210.144ZM211.584 113.76C211.051 113.76 210.613 113.589 210.272 113.248C209.931 112.885 209.76 112.437 209.76 111.904C209.76 111.392 209.931 110.965 210.272 110.624C210.613 110.261 211.051 110.08 211.584 110.08C212.117 110.08 212.555 110.261 212.896 110.624C213.237 110.965 213.408 111.392 213.408 111.904C213.408 112.437 213.237 112.885 212.896 113.248C212.555 113.589 212.117 113.76 211.584 113.76ZM222.1 132.32C221.247 132.32 220.436 132.213 219.668 132C218.922 131.765 218.228 131.445 217.588 131.04C216.948 130.613 216.394 130.112 215.924 129.536L217.78 127.68C218.335 128.363 218.975 128.875 219.7 129.216C220.426 129.536 221.236 129.696 222.132 129.696C223.028 129.696 223.722 129.547 224.212 129.248C224.703 128.928 224.948 128.491 224.948 127.936C224.948 127.381 224.746 126.955 224.34 126.656C223.956 126.336 223.455 126.08 222.836 125.888C222.218 125.675 221.556 125.472 220.852 125.28C220.17 125.067 219.519 124.8 218.9 124.48C218.282 124.16 217.77 123.723 217.364 123.168C216.98 122.613 216.788 121.877 216.788 120.96C216.788 120.043 217.012 119.253 217.46 118.592C217.908 117.909 218.527 117.387 219.316 117.024C220.127 116.661 221.098 116.48 222.228 116.48C223.423 116.48 224.479 116.693 225.396 117.12C226.335 117.525 227.103 118.144 227.7 118.976L225.844 120.832C225.418 120.277 224.884 119.851 224.244 119.552C223.626 119.253 222.922 119.104 222.132 119.104C221.3 119.104 220.66 119.253 220.212 119.552C219.786 119.829 219.572 120.224 219.572 120.736C219.572 121.248 219.764 121.643 220.148 121.92C220.532 122.197 221.034 122.432 221.652 122.624C222.292 122.816 222.954 123.019 223.636 123.232C224.319 123.424 224.97 123.691 225.588 124.032C226.207 124.373 226.708 124.832 227.092 125.408C227.498 125.984 227.7 126.741 227.7 127.68C227.7 129.109 227.188 130.24 226.164 131.072C225.162 131.904 223.807 132.32 222.1 132.32Z" fill="white"/>
<path d="M27.5 152.083V87.9166" stroke="white" stroke-width="9.16667" stroke-linecap="round" stroke-linejoin="round"/>
<path d="M342.5 97.0833V32.9166" stroke="white" stroke-width="9.16667" stroke-linecap="round" stroke-linejoin="round"/>
<path d="M184.5 43.8333V4.16663" stroke="#FF0000" stroke-width="0.55" stroke-linecap="round" stroke-linejoin="round"/>
<path d="M184.5 235.833V196.167" stroke="#24E0EF" stroke-opacity="0.8" stroke-width="0.55" stroke-linecap="round" stroke-linejoin="round"/>
<path d="M184.5 180.833V141.167" stroke="#24E0EF" stroke-opacity="0.8" stroke-width="0.55" stroke-linecap="round" stroke-linejoin="round"/>
<path d="M184.5 105.833V66.1666" stroke="#FF0000" stroke-width="0.55" stroke-linecap="round" stroke-linejoin="round"/>
<path d="M91.0001 154.417C93.5314 154.417 95.5834 156.469 95.5834 159C95.5834 161.531 93.5314 163.583 91.0001 163.583C88.4688 163.583 86.4167 161.531 86.4167 159C86.4167 156.469 88.4688 154.417 91.0001 154.417Z" fill="white" stroke="white" stroke-width="4.58333"/>
</g>
<defs>
<clipPath id="clip0_10_17">
<rect width="370" height="240" fill="white"/>
</clipPath>
</defs>
</svg>
