<svg width="370" height="240" viewBox="0 0 370 240" fill="none" xmlns="http://www.w3.org/2000/svg">
<rect width="370" height="240" fill="black"/>
<g clip-path="url(#clip0_10_19)">
<path d="M36.0156 172.109H7.02197V204.175H36.0156V172.109Z" fill="#F9D84E" stroke="black" stroke-width="0.214844"/>
<path d="M36.0156 196.159H7.02197V204.175H36.0156V196.159Z" fill="#FFC20D" stroke="black" stroke-width="0.214844"/>
<path d="M14.2703 172.109H7.02197V204.175H14.2703V172.109Z" fill="#FFC20D" stroke="black" stroke-width="0.214844"/>
<path d="M65.0093 172.109H36.0156V204.175H65.0093V172.109Z" fill="#F9D84E" stroke="black" stroke-width="0.214844"/>
<path d="M65.0093 196.159H36.0156V204.175H65.0093V196.159Z" fill="#FFC20D" stroke="black" stroke-width="0.214844"/>
<path d="M43.2639 172.109H36.0156V204.175H43.2639V172.109Z" fill="#FFC20D" stroke="black" stroke-width="0.214844"/>
<path d="M65.0093 140.042H36.0156V172.109H65.0093V140.042Z" fill="#F9D84E" stroke="black" stroke-width="0.214844"/>
<path d="M65.0093 164.092H36.0156V172.109H65.0093V164.092Z" fill="#FFC20D" stroke="black" stroke-width="0.214844"/>
<path d="M43.2639 140.042H36.0156V172.109H43.2639V140.042Z" fill="#FFC20D" stroke="black" stroke-width="0.214844"/>
<path d="M36.0156 140.042H7.02197V172.109H36.0156V140.042Z" fill="#F9D84E" stroke="black" stroke-width="0.214844"/>
<path d="M36.0156 164.092H7.02197V172.109H36.0156V164.092Z" fill="#FFC20D" stroke="black" stroke-width="0.214844"/>
<path d="M14.2703 140.042H7.02197V172.109H14.2703V140.042Z" fill="#FFC20D" stroke="black" stroke-width="0.214844"/>
<path d="M36.0156 204.175H7.02197V236.242H36.0156V204.175Z" fill="#B169BF" stroke="black" stroke-width="0.214844"/>
<path d="M14.2703 204.175H7.02197V236.242H14.2703V204.175Z" fill="#844A8F" stroke="black" stroke-width="0.214844"/>
<path d="M36.0156 228.225H7.02197V236.242H36.0156V228.225Z" fill="#844A8F" stroke="black" stroke-width="0.214844"/>
<path d="M14.2703 228.225H7.02197V236.242H14.2703V228.225Z" fill="#844A8F" stroke="black" stroke-width="0.214844"/>
<path d="M65.0093 204.175H36.0156V236.242H65.0093V204.175Z" fill="#B169BF" stroke="black" stroke-width="0.214844"/>
<path d="M43.2639 204.175H36.0156V236.242H43.2639V204.175Z" fill="#844A8F" stroke="black" stroke-width="0.214844"/>
<path d="M65.0093 228.225H36.0156V236.242H65.0093V228.225Z" fill="#844A8F" stroke="black" stroke-width="0.214844"/>
<path d="M43.2639 228.225H36.0156V236.242H43.2639V228.225Z" fill="#844A8F" stroke="black" stroke-width="0.214844"/>
<path d="M94.0029 204.175H65.0093V236.242H94.0029V204.175Z" fill="#B169BF" stroke="black" stroke-width="0.214844"/>
<path d="M72.2576 204.175H65.0093V236.242H72.2576V204.175Z" fill="#844A8F" stroke="black" stroke-width="0.214844"/>
<path d="M94.0029 228.225H65.0093V236.242H94.0029V228.225Z" fill="#844A8F" stroke="black" stroke-width="0.214844"/>
<path d="M72.2576 228.225H65.0093V236.242H72.2576V228.225Z" fill="#844A8F" stroke="black" stroke-width="0.214844"/>
<path d="M122.997 204.175H94.0029V236.242H122.997V204.175Z" fill="#B169BF" stroke="black" stroke-width="0.214844"/>
<path d="M101.251 204.175H94.0029V236.242H101.251V204.175Z" fill="#844A8F" stroke="black" stroke-width="0.214844"/>
<path d="M122.997 228.225H94.0029V236.242H122.997V228.225Z" fill="#844A8F" stroke="black" stroke-width="0.214844"/>
<path d="M101.251 228.225H94.0029V236.242H101.251V228.225Z" fill="#844A8F" stroke="black" stroke-width="0.214844"/>
<path d="M122.997 172.109H94.0029V204.175H122.997V172.109Z" fill="#FD5E95" stroke="black" stroke-width="0.214844"/>
<path d="M122.997 196.159H94.0029V204.175H122.997V196.159Z" fill="#D14D7B" stroke="black" stroke-width="0.214844"/>
<path d="M101.251 172.109H94.0029V204.175H101.251V172.109Z" fill="#D14D7B" stroke="black" stroke-width="0.214844"/>
<path d="M151.991 172.109H122.997V204.175H151.991V172.109Z" fill="#FD5E95" stroke="black" stroke-width="0.214844"/>
<path d="M151.991 196.159H122.997V204.175H151.991V196.159Z" fill="#D14D7B" stroke="black" stroke-width="0.214844"/>
<path d="M130.245 172.109H122.997V204.175H130.245V172.109Z" fill="#D14D7B" stroke="black" stroke-width="0.214844"/>
<path d="M151.991 204.175H122.997V236.242H151.991V204.175Z" fill="#FD5E95" stroke="black" stroke-width="0.214844"/>
<path d="M151.991 228.225H122.997V236.242H151.991V228.225Z" fill="#D14D7B" stroke="black" stroke-width="0.214844"/>
<path d="M130.245 204.175H122.997V236.242H130.245V204.175Z" fill="#D14D7B" stroke="black" stroke-width="0.214844"/>
<path d="M180.984 204.175H151.991V236.242H180.984V204.175Z" fill="#FD5E95" stroke="black" stroke-width="0.214844"/>
<path d="M180.984 228.225H151.991V236.242H180.984V228.225Z" fill="#D14D7B" stroke="black" stroke-width="0.214844"/>
<path d="M159.239 204.175H151.991V236.242H159.239V204.175Z" fill="#D14D7B" stroke="black" stroke-width="0.214844"/>
<path d="M137.494 3.75793H108.5V35.8247H137.494V3.75793Z" fill="#FD5E95" stroke="black" stroke-width="0.214844"/>
<path d="M137.494 27.8081H108.5V35.8247H137.494V27.8081Z" fill="#D14D7B" stroke="black" stroke-width="0.214844"/>
<path d="M115.748 3.75793H108.5V35.8247H115.748V3.75793Z" fill="#D14D7B" stroke="black" stroke-width="0.214844"/>
<path d="M166.487 3.75793H137.494V35.8247H166.487V3.75793Z" fill="#FD5E95" stroke="black" stroke-width="0.214844"/>
<path d="M166.487 27.8081H137.494V35.8247H166.487V27.8081Z" fill="#D14D7B" stroke="black" stroke-width="0.214844"/>
<path d="M144.742 3.75793H137.494V35.8247H144.742V3.75793Z" fill="#D14D7B" stroke="black" stroke-width="0.214844"/>
<path d="M166.487 35.8247H137.494V67.8914H166.487V35.8247Z" fill="#FD5E95" stroke="black" stroke-width="0.214844"/>
<path d="M166.487 59.8749H137.494V67.8914H166.487V59.8749Z" fill="#D14D7B" stroke="black" stroke-width="0.214844"/>
<path d="M144.742 35.8247H137.494V67.8914H144.742V35.8247Z" fill="#D14D7B" stroke="black" stroke-width="0.214844"/>
<path d="M195.481 35.8247H166.487V67.8914H195.481V35.8247Z" fill="#FD5E95" stroke="black" stroke-width="0.214844"/>
<path d="M195.481 59.8749H166.487V67.8914H195.481V59.8749Z" fill="#D14D7B" stroke="black" stroke-width="0.214844"/>
<path d="M173.736 35.8247H166.487V67.8914H173.736V35.8247Z" fill="#D14D7B" stroke="black" stroke-width="0.214844"/>
<path d="M180.984 172.109H151.991V204.175H180.984V172.109Z" fill="#7DBB34" stroke="black" stroke-width="0.214844"/>
<path d="M180.984 196.159H151.991V204.175H180.984V196.159Z" fill="#60A333" stroke="black" stroke-width="0.214844"/>
<path d="M159.239 172.109H151.991V204.175H159.239V172.109Z" fill="#60A333" stroke="black" stroke-width="0.214844"/>
<path d="M209.978 172.109H180.984V204.175H209.978V172.109Z" fill="#7DBB34" stroke="black" stroke-width="0.214844"/>
<path d="M209.978 196.159H180.984V204.175H209.978V196.159Z" fill="#60A333" stroke="black" stroke-width="0.214844"/>
<path d="M188.233 172.109H180.984V204.175H188.233V172.109Z" fill="#60A333" stroke="black" stroke-width="0.214844"/>
<path d="M209.978 204.175H180.984V236.242H209.978V204.175Z" fill="#7DBB34" stroke="black" stroke-width="0.214844"/>
<path d="M209.978 228.225H180.984V236.242H209.978V228.225Z" fill="#60A333" stroke="black" stroke-width="0.214844"/>
<path d="M188.233 204.175H180.984V236.242H188.233V204.175Z" fill="#60A333" stroke="black" stroke-width="0.214844"/>
<path d="M180.984 140.042H151.991V172.109H180.984V140.042Z" fill="#7DBB34" stroke="black" stroke-width="0.214844"/>
<path d="M180.984 164.092H151.991V172.109H180.984V164.092Z" fill="#60A333" stroke="black" stroke-width="0.214844"/>
<path d="M159.239 140.042H151.991V172.109H159.239V140.042Z" fill="#60A333" stroke="black" stroke-width="0.214844"/>
<path d="M94.0029 59.8749H65.0093V91.9416H94.0029V59.8749Z" fill="#45CAE0" stroke="black" stroke-width="0.214844"/>
<path d="M94.0029 83.925H65.0093V91.9416H94.0029V83.925Z" fill="#0AADBF" stroke="black" stroke-width="0.214844"/>
<path d="M72.2576 59.8749H65.0093V91.9416H72.2576V59.8749Z" fill="#0AADBF" stroke="black" stroke-width="0.214844"/>
<path d="M94.0029 91.9415H65.0093V124.008H94.0029V91.9415Z" fill="#45CAE0" stroke="black" stroke-width="0.214844"/>
<path d="M94.0029 115.992H65.0093V124.008H94.0029V115.992Z" fill="#0AADBF" stroke="black" stroke-width="0.214844"/>
<path d="M72.2576 91.9415H65.0093V124.008H72.2576V91.9415Z" fill="#0AADBF" stroke="black" stroke-width="0.214844"/>
<path d="M122.997 91.9415H94.0029V124.008H122.997V91.9415Z" fill="#45CAE0" stroke="black" stroke-width="0.214844"/>
<path d="M122.997 115.992H94.0029V124.008H122.997V115.992Z" fill="#0AADBF" stroke="black" stroke-width="0.214844"/>
<path d="M101.251 91.9415H94.0029V124.008H101.251V91.9415Z" fill="#0AADBF" stroke="black" stroke-width="0.214844"/>
<path d="M94.0029 124.008H65.0093V156.075H94.0029V124.008Z" fill="#45CAE0" stroke="black" stroke-width="0.214844"/>
<path d="M94.0029 148.058H65.0093V156.075H94.0029V148.058Z" fill="#0AADBF" stroke="black" stroke-width="0.214844"/>
<path d="M72.2576 124.008H65.0093V156.075H72.2576V124.008Z" fill="#0AADBF" stroke="black" stroke-width="0.214844"/>
<path d="M108.5 39.5827H134.096V67.8914C134.096 69.967 135.617 71.6494 137.494 71.6494H195.481C197.358 71.6494 198.879 69.9675 198.879 67.8914V35.8247C198.879 33.7491 197.358 32.0667 195.481 32.0667H169.885V3.75797C169.885 1.68234 168.364 0 166.487 0H108.5C106.624 0 105.102 1.68188 105.102 3.75797V35.8247C105.102 37.9003 106.624 39.5827 108.5 39.5827ZM140.891 39.5827H163.09V64.1339H140.891V39.5827ZM192.084 64.1334H169.885V39.5827H192.084V64.1334ZM163.09 32.0667H140.891V7.51547H163.09V32.0667ZM111.898 7.51547H134.096V32.0667H111.898V7.51547Z" fill="black" stroke="black" stroke-width="0.214844"/>
<path d="M209.978 168.351H184.382V140.042C184.382 137.966 182.861 136.284 180.984 136.284H151.991C150.114 136.284 148.593 137.966 148.593 140.042V168.351H144.742C142.865 168.351 141.344 170.032 141.344 172.109C141.344 174.184 142.865 175.867 144.742 175.867H148.593V200.418H126.394V175.867H130.245C132.122 175.867 133.643 174.185 133.643 172.109C133.643 170.033 132.122 168.351 130.245 168.351H94.0034C92.1271 168.351 90.6055 170.032 90.6055 172.109V200.417H68.4071V159.833H94.003C95.8792 159.833 97.4008 158.151 97.4008 156.075V127.766H122.997C124.873 127.766 126.394 126.084 126.394 124.008V91.9415C126.394 89.8659 124.874 88.1835 122.997 88.1835H97.4008V59.8748C97.4008 57.7992 95.8797 56.1168 94.003 56.1168H65.0093C63.133 56.1168 61.6115 57.7987 61.6115 59.8748V67.8914C61.6115 69.967 63.1326 71.6493 65.0093 71.6493C66.8856 71.6493 68.4071 69.9674 68.4071 67.8914V63.6323H90.6055V88.1835H68.4071V83.9245C68.4071 81.8489 66.886 80.1665 65.0093 80.1665C63.133 80.1665 61.6115 81.8484 61.6115 83.9245V136.283H28.7673C26.891 136.283 25.3695 137.965 25.3695 140.041C25.3695 142.117 26.8906 143.799 28.7673 143.799H32.6182V168.351H10.4198V143.799H14.2707C16.147 143.799 17.6685 142.117 17.6685 140.041C17.6685 137.965 16.1474 136.283 14.2707 136.283H7.02198C5.14569 136.283 3.62415 137.965 3.62415 140.041V236.242C3.62415 238.318 5.14527 240 7.02198 240H209.978C211.855 240 213.376 238.318 213.376 236.242V172.109C213.376 170.033 211.855 168.351 209.978 168.351ZM206.58 200.417H184.382V175.866H206.581L206.58 200.417ZM155.388 175.867H177.587V200.418H155.388V175.867ZM155.388 143.799H177.587V168.351H155.388V143.799ZM97.4008 175.867H119.599V200.418H97.4008V175.867ZM39.4135 175.867H61.6119V200.418H39.4135V175.867ZM90.6055 152.317H68.4071V127.766H90.6055V152.317ZM119.599 120.25H97.4008V95.699H119.599V120.25ZM90.6055 95.6995V120.251H68.4071V95.6995H90.6055ZM61.6119 168.351H39.4135V143.799H61.6119V168.351ZM32.6178 175.867V200.418H10.4198V175.867H32.6178ZM10.4198 207.933H32.6178V232.484H10.4198V207.933ZM39.4135 207.933H61.6119V232.484H39.4135V207.933ZM68.4071 207.933H90.6055V232.484H68.4071V207.933ZM97.4008 207.933H119.599V232.484H97.4008V207.933ZM126.394 207.933H148.593V232.484H126.394V207.933ZM155.388 207.933H177.587V232.484H155.388V207.933ZM206.58 232.484H184.382V207.933H206.581L206.58 232.484Z" fill="black" stroke="black" stroke-width="0.214844"/>
</g>
<path d="M213.512 132V110.432H216.52V132H213.512ZM205.96 112.544V109.792H224.04V112.544H205.96ZM229.933 132.32C228.419 132.32 227.053 131.979 225.837 131.296C224.621 130.592 223.661 129.643 222.957 128.448C222.253 127.253 221.901 125.899 221.901 124.384C221.901 122.891 222.243 121.547 222.925 120.352C223.629 119.157 224.568 118.219 225.741 117.536C226.936 116.832 228.269 116.48 229.741 116.48C231.149 116.48 232.387 116.8 233.453 117.44C234.541 118.08 235.384 118.965 235.981 120.096C236.6 121.227 236.909 122.507 236.909 123.936C236.909 124.149 236.899 124.384 236.877 124.64C236.856 124.875 236.813 125.152 236.749 125.472H223.917V123.072H235.213L234.157 124C234.157 122.976 233.976 122.112 233.613 121.408C233.251 120.683 232.739 120.128 232.077 119.744C231.416 119.339 230.616 119.136 229.677 119.136C228.696 119.136 227.832 119.349 227.085 119.776C226.339 120.203 225.763 120.8 225.357 121.568C224.952 122.336 224.749 123.243 224.749 124.288C224.749 125.355 224.963 126.293 225.389 127.104C225.816 127.893 226.424 128.512 227.213 128.96C228.003 129.387 228.909 129.6 229.933 129.6C230.787 129.6 231.565 129.451 232.269 129.152C232.995 128.853 233.613 128.405 234.125 127.808L235.981 129.696C235.256 130.549 234.36 131.2 233.293 131.648C232.248 132.096 231.128 132.32 229.933 132.32ZM241.917 132V110.432H244.797V132H241.917ZM238.173 119.424V116.8H248.541V119.424H238.173ZM251.362 132V116.8H254.242V132H251.362ZM254.242 123.328L253.154 122.848C253.154 120.907 253.602 119.36 254.498 118.208C255.394 117.056 256.685 116.48 258.37 116.48C259.138 116.48 259.831 116.619 260.45 116.896C261.069 117.152 261.645 117.589 262.178 118.208L260.29 120.16C259.97 119.819 259.618 119.573 259.234 119.424C258.85 119.275 258.402 119.2 257.89 119.2C256.823 119.2 255.949 119.541 255.266 120.224C254.583 120.907 254.242 121.941 254.242 123.328ZM264.238 132V116.8H267.118V132H264.238ZM265.678 113.76C265.144 113.76 264.707 113.589 264.366 113.248C264.024 112.885 263.854 112.437 263.854 111.904C263.854 111.392 264.024 110.965 264.366 110.624C264.707 110.261 265.144 110.08 265.678 110.08C266.211 110.08 266.648 110.261 266.99 110.624C267.331 110.965 267.502 111.392 267.502 111.904C267.502 112.437 267.331 112.885 266.99 113.248C266.648 113.589 266.211 113.76 265.678 113.76ZM276.194 132.32C275.341 132.32 274.53 132.213 273.762 132C273.015 131.765 272.322 131.445 271.682 131.04C271.042 130.613 270.487 130.112 270.018 129.536L271.874 127.68C272.429 128.363 273.069 128.875 273.794 129.216C274.519 129.536 275.33 129.696 276.226 129.696C277.122 129.696 277.815 129.547 278.306 129.248C278.797 128.928 279.042 128.491 279.042 127.936C279.042 127.381 278.839 126.955 278.434 126.656C278.05 126.336 277.549 126.08 276.93 125.888C276.311 125.675 275.65 125.472 274.946 125.28C274.263 125.067 273.613 124.8 272.994 124.48C272.375 124.16 271.863 123.723 271.458 123.168C271.074 122.613 270.882 121.877 270.882 120.96C270.882 120.043 271.106 119.253 271.554 118.592C272.002 117.909 272.621 117.387 273.41 117.024C274.221 116.661 275.191 116.48 276.322 116.48C277.517 116.48 278.573 116.693 279.49 117.12C280.429 117.525 281.197 118.144 281.794 118.976L279.938 120.832C279.511 120.277 278.978 119.851 278.338 119.552C277.719 119.253 277.015 119.104 276.226 119.104C275.394 119.104 274.754 119.253 274.306 119.552C273.879 119.829 273.666 120.224 273.666 120.736C273.666 121.248 273.858 121.643 274.242 121.92C274.626 122.197 275.127 122.432 275.746 122.624C276.386 122.816 277.047 123.019 277.73 123.232C278.413 123.424 279.063 123.691 279.682 124.032C280.301 124.373 280.802 124.832 281.186 125.408C281.591 125.984 281.794 126.741 281.794 127.68C281.794 129.109 281.282 130.24 280.258 131.072C279.255 131.904 277.901 132.32 276.194 132.32Z" fill="white"/>
<defs>
<clipPath id="clip0_10_19">
<rect width="217" height="240" fill="white"/>
</clipPath>
</defs>
</svg>
