<svg width="370" height="240" viewBox="0 0 370 240" fill="none" xmlns="http://www.w3.org/2000/svg">
<g clip-path="url(#clip0_10_23)">
<rect width="370" height="240" fill="black"/>
<path d="M194.512 132V110.432H197.52V132H194.512ZM186.96 112.544V109.792H205.04V112.544H186.96ZM208.144 132V116.8H211.024V132H208.144ZM209.584 113.76C209.051 113.76 208.613 113.589 208.272 113.248C207.931 112.885 207.76 112.437 207.76 111.904C207.76 111.392 207.931 110.965 208.272 110.624C208.613 110.261 209.051 110.08 209.584 110.08C210.117 110.08 210.555 110.261 210.896 110.624C211.237 110.965 211.408 111.392 211.408 111.904C211.408 112.437 211.237 112.885 210.896 113.248C210.555 113.589 210.117 113.76 209.584 113.76ZM222.212 132.32C220.719 132.32 219.364 131.968 218.148 131.264C216.954 130.56 216.004 129.611 215.3 128.416C214.618 127.2 214.276 125.856 214.276 124.384C214.276 122.891 214.618 121.547 215.3 120.352C216.004 119.157 216.954 118.219 218.148 117.536C219.364 116.832 220.719 116.48 222.212 116.48C223.386 116.48 224.474 116.704 225.476 117.152C226.479 117.579 227.343 118.208 228.068 119.04L226.148 120.96C225.679 120.405 225.103 119.989 224.42 119.712C223.759 119.413 223.023 119.264 222.212 119.264C221.252 119.264 220.399 119.488 219.652 119.936C218.906 120.363 218.319 120.96 217.892 121.728C217.466 122.496 217.252 123.381 217.252 124.384C217.252 125.387 217.466 126.272 217.892 127.04C218.319 127.808 218.906 128.416 219.652 128.864C220.399 129.312 221.252 129.536 222.212 129.536C223.023 129.536 223.759 129.397 224.42 129.12C225.103 128.821 225.69 128.395 226.18 127.84L228.068 129.76C227.364 130.571 226.5 131.2 225.476 131.648C224.474 132.096 223.386 132.32 222.212 132.32ZM237.325 132V110.432H240.333V132H237.325ZM229.773 112.544V109.792H247.853V112.544H229.773ZM253.17 132.32C251.783 132.32 250.524 131.979 249.394 131.296C248.263 130.592 247.367 129.643 246.706 128.448C246.066 127.253 245.746 125.909 245.746 124.416C245.746 122.923 246.066 121.579 246.706 120.384C247.367 119.189 248.252 118.24 249.362 117.536C250.492 116.832 251.762 116.48 253.17 116.48C254.322 116.48 255.346 116.725 256.242 117.216C257.159 117.685 257.895 118.347 258.45 119.2C259.004 120.032 259.314 121.003 259.378 122.112V126.688C259.314 127.776 259.004 128.747 258.45 129.6C257.916 130.453 257.191 131.125 256.274 131.616C255.378 132.085 254.343 132.32 253.17 132.32ZM253.65 129.6C255.079 129.6 256.231 129.12 257.106 128.16C257.98 127.179 258.418 125.931 258.418 124.416C258.418 123.371 258.215 122.464 257.81 121.696C257.426 120.907 256.871 120.299 256.146 119.872C255.42 119.424 254.578 119.2 253.618 119.2C252.658 119.2 251.804 119.424 251.058 119.872C250.332 120.32 249.756 120.939 249.33 121.728C248.924 122.496 248.722 123.381 248.722 124.384C248.722 125.408 248.924 126.315 249.33 127.104C249.756 127.872 250.343 128.48 251.09 128.928C251.836 129.376 252.69 129.6 253.65 129.6ZM258.226 132V127.904L258.77 124.192L258.226 120.512V116.8H261.138V132H258.226ZM272.275 132.32C270.781 132.32 269.427 131.968 268.211 131.264C267.016 130.56 266.067 129.611 265.363 128.416C264.68 127.2 264.339 125.856 264.339 124.384C264.339 122.891 264.68 121.547 265.363 120.352C266.067 119.157 267.016 118.219 268.211 117.536C269.427 116.832 270.781 116.48 272.275 116.48C273.448 116.48 274.536 116.704 275.539 117.152C276.541 117.579 277.405 118.208 278.131 119.04L276.211 120.96C275.741 120.405 275.165 119.989 274.483 119.712C273.821 119.413 273.085 119.264 272.275 119.264C271.315 119.264 270.461 119.488 269.715 119.936C268.968 120.363 268.381 120.96 267.955 121.728C267.528 122.496 267.315 123.381 267.315 124.384C267.315 125.387 267.528 126.272 267.955 127.04C268.381 127.808 268.968 128.416 269.715 128.864C270.461 129.312 271.315 129.536 272.275 129.536C273.085 129.536 273.821 129.397 274.483 129.12C275.165 128.821 275.752 128.395 276.243 127.84L278.131 129.76C277.427 130.571 276.563 131.2 275.539 131.648C274.536 132.096 273.448 132.32 272.275 132.32ZM287.387 132V110.432H290.395V132H287.387ZM279.835 112.544V109.792H297.915V112.544H279.835ZM303.712 132.32C302.219 132.32 300.875 131.968 299.68 131.264C298.486 130.56 297.536 129.611 296.832 128.416C296.128 127.2 295.776 125.845 295.776 124.352C295.776 122.88 296.128 121.557 296.832 120.384C297.536 119.189 298.486 118.24 299.68 117.536C300.875 116.832 302.219 116.48 303.712 116.48C305.184 116.48 306.518 116.832 307.712 117.536C308.928 118.219 309.888 119.157 310.592 120.352C311.296 121.547 311.648 122.88 311.648 124.352C311.648 125.845 311.296 127.2 310.592 128.416C309.888 129.611 308.928 130.56 307.712 131.264C306.518 131.968 305.184 132.32 303.712 132.32ZM303.712 129.536C304.672 129.536 305.526 129.312 306.272 128.864C307.019 128.416 307.606 127.808 308.032 127.04C308.459 126.251 308.672 125.355 308.672 124.352C308.672 123.371 308.448 122.496 308 121.728C307.574 120.96 306.987 120.363 306.24 119.936C305.515 119.488 304.672 119.264 303.712 119.264C302.752 119.264 301.899 119.488 301.152 119.936C300.406 120.363 299.819 120.96 299.392 121.728C298.966 122.496 298.752 123.371 298.752 124.352C298.752 125.355 298.966 126.251 299.392 127.04C299.819 127.808 300.406 128.416 301.152 128.864C301.899 129.312 302.752 129.536 303.712 129.536ZM321.933 132.32C320.419 132.32 319.053 131.979 317.837 131.296C316.621 130.592 315.661 129.643 314.957 128.448C314.253 127.253 313.901 125.899 313.901 124.384C313.901 122.891 314.243 121.547 314.925 120.352C315.629 119.157 316.568 118.219 317.741 117.536C318.936 116.832 320.269 116.48 321.741 116.48C323.149 116.48 324.387 116.8 325.453 117.44C326.541 118.08 327.384 118.965 327.981 120.096C328.6 121.227 328.909 122.507 328.909 123.936C328.909 124.149 328.899 124.384 328.877 124.64C328.856 124.875 328.813 125.152 328.749 125.472H315.917V123.072H327.213L326.157 124C326.157 122.976 325.976 122.112 325.613 121.408C325.251 120.683 324.739 120.128 324.077 119.744C323.416 119.339 322.616 119.136 321.677 119.136C320.696 119.136 319.832 119.349 319.085 119.776C318.339 120.203 317.763 120.8 317.357 121.568C316.952 122.336 316.749 123.243 316.749 124.288C316.749 125.355 316.963 126.293 317.389 127.104C317.816 127.893 318.424 128.512 319.213 128.96C320.003 129.387 320.909 129.6 321.933 129.6C322.787 129.6 323.565 129.451 324.269 129.152C324.995 128.853 325.613 128.405 326.125 127.808L327.981 129.696C327.256 130.549 326.36 131.2 325.293 131.648C324.248 132.096 323.128 132.32 321.933 132.32Z" fill="white"/>
<path d="M67.9996 79.0004V97.9996H49.0004H30V99.9992V102H49.0004H68.0008V120V138H49.0004H30V140V141.999H49.0004H68.0008V161V180H70.0004H72V161V141.999H90H108V161V180H110H111.999V161V141.999H131H150V140V138H131H112V120V102H131.001H150V100V98.0008H131H112V79.0004V60H110.001H108V79.0004V97.9996H90H72V78.9992V60H70.0004H68.0008V79.0004H67.9996ZM108 120V138H90H72V120V102H90H108V120Z" fill="white" stroke="white" stroke-width="0.011"/>
<path d="M86.7746 104.376C82.299 105.35 77.8493 108.851 75.7995 113.025C73.4497 117.801 73.4497 122.2 75.7995 126.976C77.275 129.976 80.0239 132.726 83.0239 134.2C87.7995 136.55 92.199 136.55 96.9746 134.2C99.9746 132.726 102.725 129.976 104.199 126.976C106.549 122.2 106.549 117.801 104.199 113.025C102.725 110.025 99.9746 107.275 96.9746 105.801C93.5252 104.076 90.2497 103.625 86.7746 104.376ZM93.1248 108.375C98.4501 109.776 102 114.4 102 120C102 126.775 96.775 132 89.9999 132C83.2248 132 77.9999 126.775 77.9999 120C77.9999 112.025 85.375 106.375 93.1248 108.375Z" fill="white" stroke="white" stroke-width="0.011"/>
<path d="M126.775 64.375C122.301 65.3497 117.85 68.8505 115.8 73.0248C114.65 75.3501 114 77.8493 114 79.9995C114 85.675 117.775 91.6248 123.024 94.1999C127.8 96.5497 132.2 96.5497 136.975 94.1999C139.975 92.7244 142.725 89.9754 144.2 86.9754C146.549 82.1999 146.549 77.8003 144.2 73.0261C142.725 70.0261 139.975 67.2759 136.975 65.8016C133.524 64.075 130.25 63.6244 126.775 64.375ZM133.125 68.3754C138.451 69.775 142 74.3999 142 80.0007C142 86.7759 136.776 92.0007 130 92.0007C123.225 92.0007 118 86.7759 118 80.0007C118 72.0244 125.376 66.3746 133.125 68.3754Z" fill="white" stroke="white" stroke-width="0.011"/>
<path d="M36.0001 106.125L34.625 107.5L40.8748 113.75L47.1246 120L40.8748 126.25L34.625 132.5L36.0748 133.925L37.5001 135.375L43.7499 129.125L49.9997 122.875L56.2495 129.125L62.4993 135.375L63.9246 133.925L65.3756 132.5L59.1258 126.25L52.8748 120L59.1246 113.75L65.3744 107.5L63.9246 106.075L62.4993 104.625L56.2495 110.875L49.9997 117.125L43.8001 110.925C40.3997 107.525 37.5503 104.75 37.5001 104.75C37.4254 104.75 36.7495 105.375 36.0001 106.125Z" fill="white" stroke="white" stroke-width="0.011"/>
<path d="M46.7756 144.375C42.3001 145.349 37.8503 148.85 35.8005 153.024C34.6507 155.35 34.0005 157.85 34.0005 159.999C34.0005 165.675 37.7756 171.624 43.025 174.2C47.8005 176.549 52.2001 176.549 56.9744 174.2C59.9744 172.725 62.7246 169.975 64.1989 166.975C66.5487 162.2 66.5487 157.8 64.1989 153.024C62.7233 150.024 59.9744 147.274 56.9744 145.8C53.525 144.075 50.2495 143.625 46.7756 144.375ZM53.1246 148.375C58.4499 149.775 61.9997 154.4 61.9997 160C61.9997 166.775 56.7748 172 49.9997 172C43.2246 172 37.9997 166.775 37.9997 160C37.9997 152.025 45.3748 146.375 53.1246 148.375Z" fill="white" stroke="white" stroke-width="0.011"/>
<path d="M115.999 146.124L114.624 147.499L120.874 153.749L127.124 159.999L120.874 166.249L114.624 172.5L116.074 173.925L117.499 175.375L123.749 169.125L129.999 162.875L136.249 169.125L142.499 175.375L143.924 173.925L145.374 172.5L139.124 166.25L132.874 160L139.124 153.751L145.374 147.501L143.924 146.075L142.5 144.624L136.25 150.874L130 157.124L123.801 150.924C120.4 147.524 117.551 144.749 117.501 144.749C117.425 144.749 116.75 145.375 115.999 146.124Z" fill="white" stroke="white" stroke-width="0.011"/>
</g>
<defs>
<clipPath id="clip0_10_23">
<rect width="370" height="240" fill="white"/>
</clipPath>
</defs>
</svg>
