<svg width="370" height="240" viewBox="0 0 370 240" fill="none" xmlns="http://www.w3.org/2000/svg">
<rect width="370" height="240" fill="black"/>
<path d="M73.512 132V110.432H76.52V132H73.512ZM65.96 112.544V109.792H84.04V112.544H65.96ZM87.144 132V116.8H90.024V132H87.144ZM88.584 113.76C88.0507 113.76 87.6133 113.589 87.272 113.248C86.9307 112.885 86.76 112.437 86.76 111.904C86.76 111.392 86.9307 110.965 87.272 110.624C87.6133 110.261 88.0507 110.08 88.584 110.08C89.1173 110.08 89.5547 110.261 89.896 110.624C90.2373 110.965 90.408 111.392 90.408 111.904C90.408 112.437 90.2373 112.885 89.896 113.248C89.5547 113.589 89.1173 113.76 88.584 113.76ZM94.2682 132V116.8H97.1483V132H94.2682ZM104.54 132V122.816C104.54 121.685 104.188 120.8 103.484 120.16C102.802 119.499 101.938 119.168 100.892 119.168C100.188 119.168 99.5589 119.317 99.0043 119.616C98.4496 119.915 98.0016 120.331 97.6603 120.864C97.3189 121.397 97.1483 122.037 97.1483 122.784L95.9643 122.208C95.9643 121.056 96.2096 120.053 96.7003 119.2C97.2123 118.347 97.9056 117.685 98.7803 117.216C99.6549 116.725 100.636 116.48 101.724 116.48C102.791 116.48 103.751 116.715 104.604 117.184C105.479 117.653 106.162 118.315 106.652 119.168C107.164 120.021 107.42 121.035 107.42 122.208V132H104.54ZM114.812 132V122.816C114.812 121.685 114.46 120.8 113.756 120.16C113.074 119.499 112.22 119.168 111.196 119.168C110.492 119.168 109.852 119.317 109.276 119.616C108.722 119.915 108.274 120.331 107.932 120.864C107.591 121.397 107.42 122.037 107.42 122.784L105.788 122.208C105.852 121.035 106.162 120.032 106.716 119.2C107.292 118.347 108.028 117.685 108.924 117.216C109.82 116.725 110.802 116.48 111.868 116.48C112.978 116.48 113.97 116.715 114.844 117.184C115.719 117.653 116.412 118.315 116.924 119.168C117.458 120.021 117.724 121.045 117.724 122.24V132H114.812ZM128.683 132.32C127.169 132.32 125.803 131.979 124.587 131.296C123.371 130.592 122.411 129.643 121.707 128.448C121.003 127.253 120.651 125.899 120.651 124.384C120.651 122.891 120.993 121.547 121.675 120.352C122.379 119.157 123.318 118.219 124.491 117.536C125.686 116.832 127.019 116.48 128.491 116.48C129.899 116.48 131.137 116.8 132.203 117.44C133.291 118.08 134.134 118.965 134.731 120.096C135.35 121.227 135.659 122.507 135.659 123.936C135.659 124.149 135.649 124.384 135.627 124.64C135.606 124.875 135.563 125.152 135.499 125.472H122.667V123.072H133.963L132.907 124C132.907 122.976 132.726 122.112 132.363 121.408C132.001 120.683 131.489 120.128 130.827 119.744C130.166 119.339 129.366 119.136 128.427 119.136C127.446 119.136 126.582 119.349 125.835 119.776C125.089 120.203 124.513 120.8 124.107 121.568C123.702 122.336 123.499 123.243 123.499 124.288C123.499 125.355 123.713 126.293 124.139 127.104C124.566 127.893 125.174 128.512 125.963 128.96C126.753 129.387 127.659 129.6 128.683 129.6C129.537 129.6 130.315 129.451 131.019 129.152C131.745 128.853 132.363 128.405 132.875 127.808L134.731 129.696C134.006 130.549 133.11 131.2 132.043 131.648C130.998 132.096 129.878 132.32 128.683 132.32ZM138.799 132V116.8H141.68V132H138.799ZM141.68 123.328L140.592 122.848C140.592 120.907 141.04 119.36 141.936 118.208C142.832 117.056 144.122 116.48 145.808 116.48C146.576 116.48 147.269 116.619 147.888 116.896C148.506 117.152 149.082 117.589 149.616 118.208L147.728 120.16C147.408 119.819 147.056 119.573 146.672 119.424C146.288 119.275 145.84 119.2 145.328 119.2C144.261 119.2 143.386 119.541 142.704 120.224C142.021 120.907 141.68 121.941 141.68 123.328Z" fill="white"/>
<g clip-path="url(#clip0_19_488)">
<path d="M212.2 65C210.985 65 210 65.9852 210 67.2V76C210 77.2148 210.985 78.2 212.2 78.2H218.822C219.351 96.9994 231.222 113.392 248.403 120C231.223 126.608 219.351 143.001 218.822 161.8H212.2C210.985 161.8 210 162.785 210 164V172.8C210 174.015 210.985 175 212.2 175H317.8C319.015 175 320 174.015 320 172.8V164C320 162.785 319.015 161.8 317.8 161.8H311.21C310.68 143.001 298.807 126.608 281.626 120C298.807 113.392 310.68 96.9994 311.21 78.2H317.8C319.015 78.2 320 77.2148 320 76V67.2C320 65.9852 319.015 65 317.8 65H212.2ZM214.4 69.4H315.6V73.8H214.4V69.4ZM223.229 78.2H306.802C306.205 97.4491 292.524 113.845 273.576 117.803C272.367 117.922 271.484 118.999 271.603 120.208C271.699 121.183 272.428 121.976 273.39 122.155C292.434 126.043 306.202 142.488 306.802 161.8H291.2C290.229 153.527 285.41 146.197 278.2 142.026C270.032 137.31 259.968 137.31 251.8 142.026C244.593 146.199 239.778 153.528 238.809 161.8H223.229C223.829 142.488 237.595 126.043 256.639 122.155C257.834 121.935 258.624 120.787 258.404 119.592C258.225 118.627 257.429 117.896 256.452 117.801C237.505 113.844 223.826 97.4491 223.229 78.2ZM250.92 93.6097C250.92 98.6402 253.604 103.288 257.96 105.803C262.316 108.318 267.684 108.318 272.04 105.803C276.396 103.288 279.08 98.6402 279.08 93.6097H250.92ZM214.4 166.2H315.6V170.6H214.4V166.2Z" fill="#64033D" stroke="#64033D" stroke-width="0.44"/>
</g>
<defs>
<clipPath id="clip0_19_488">
<rect width="110" height="110" fill="white" transform="translate(210 65)"/>
</clipPath>
</defs>
</svg>
